<?xml version="1.0" encoding="UTF-8"?>
<svg width="57px" height="61px" viewBox="0 0 57 61" version="1.1" xmlns="http://www.w3.org/2000/svg" xmlns:xlink="http://www.w3.org/1999/xlink">
    <!-- Generator: Sketch 45.2 (43514) - http://www.bohemiancoding.com/sketch -->
    <title>Group 2</title>
    <desc>Created with Sketch.</desc>
    <defs></defs>
    <g id="Page-1" stroke="none" stroke-width="1" fill="none" fill-rule="evenodd">
        <g id="Group-2">
            <g id="Kangaroo-Copy" transform="translate(0.000000, 17.000000)">
                <path d="M2.00906601,26.2432042 C6.2705534,26.8543611 12.8264749,23.3265389 14.8170608,19.1875598 C16.3044632,14.1647217 18.9096668,9.9530682 23.9712645,7.52159099 C27.9413622,5.61475361 31.7896439,6.29443212 36.0898909,6.40240549 C36.5224765,5.97535698 39.6585492,2.8351315 39.5436544,2.39008742 C37.8762965,2.44891906 36.888617,1.79138893 36.580616,0.417497026 C38.3012686,0.117109577 39.7035381,0.630675216 41.0594344,1.26121201 C41.6297553,1.07087434 42.4637804,0.994047131 43.5082151,1.04526527 C44.8613429,1.79554175 45.7555838,2.18452274 47.2665189,2.49113942 C48.5185947,3.01647139 47.7662418,3.84565149 46.5273166,4.74819811 C45.3430702,5.19808715 43.983021,5.55799838 42.5966707,5.72065057 C41.6352924,7.74515123 41.2262394,9.6928247 39.5803377,11.4287042 C39.6550885,13.392989 37.4430187,18.0081584 34.9215637,16.1760718 C36.8104055,14.7793394 37.0187387,13.9570806 36.4629527,13.3957575 C35.8704835,13.8241903 35.1444318,14.0339078 34.6993877,14.5516263 C34.6599359,21.9484942 25.4254443,26.0355631 20.0703805,21.9028132 C16.5370212,26.2653525 6.73220876,28.5231034 1.65261547,27.5312711 C0.129914111,27.2246544 0.860810762,26.2771189 2.00906601,26.2432042 L21.2739999,21.9538149" id="Fill-31"></path>
                <path d="M29.6204173,9.00747066 C29.6221819,9.29282113 29.6382751,9.47293091 29.6946551,9.74640966 C29.7205585,9.87205767 30.3027705,10.0942765 30.6135864,10.6295854 C30.9244024,11.1648942 30.4090632,11.9276028 30.3916332,11.9166642 L30.2498746,12.1520195 C30.4360417,12.0942637 30.1273491,12.3253218 30.2882433,12.2270299 C30.5071915,12.0932724 30.697966,11.926073 30.8475762,11.7365668 C31.0448352,11.4867053 31.170112,11.1980842 31.1936447,10.8970046 C31.2171774,10.5973093 31.139658,10.2837712 30.9313248,9.98199953 C30.6876926,9.62900967 30.2661811,9.29124682 29.6204173,9.00747066 Z M29.5532801,8.7368451 C30.3277813,9.05107529 30.8281964,9.44213268 31.1140489,9.8560306 C31.3535283,10.2027912 31.442814,10.5661631 31.4158207,10.914308 C31.3881352,11.2603765 31.245555,11.5905259 31.0213026,11.874302 C30.8716511,12.0637432 30.6854552,12.2329415 30.4730131,12.3727834 C30.2678744,12.5078179 30.6741175,12.3274833 30.429306,12.3995667 L30.1393585,12.1416016 C31.1125031,11.3221114 30.5451007,10.8575518 30.309082,10.3315277 C30.1849532,10.0553651 29.5052948,9.94252014 29.440656,9.58710594 C29.4018257,9.37359881 29.3922991,9.12228949 29.4003178,8.83720496 L29.4051627,8.67662918 L29.5532801,8.7368451 Z" id="Fill-33" fill="#85392F"></path>
                <path d="M32.2789438,16.633995 C31.4642986,15.7134528 30.7354784,14.7735308 29.7450304,14.0177172 C30.5742105,13.2785149 30.6316578,11.6914448 27.5011223,11 C27.7260668,13.3761063 28.7172069,13.1532381 28.5476334,13.8100761 C28.3794441,13.8073076 28.1994885,13.8100761 28.0098429,13.8190739 C27.0893008,14.3305631 26.4809124,14.5949595 25.4523968,14.8039848 C24.6003762,15.1611275 25.0654922,15.6525448 25.9085151,16.2671624 C26.7155468,16.5723948 27.6873071,16.2408612 28.6306898,16.5308666 C28.8500972,16.992522 29.0272843,17.5040112 29.2079321,18.0244982 C30.1748474,17.3821951 31.1964416,16.9129262 32.2789438,16.633995" id="Fill-35"></path>
                <path d="M32.2962881,14.1535091 C32.4540954,14.3369254 32.613979,14.5210338 32.7690177,14.6961445 L32.8887574,14.8324955 L32.7136467,14.8774844 C32.1800091,15.0152196 31.6595221,15.2000202 31.1528778,15.4305018 C30.6469257,15.6602913 30.1548163,15.9350697 29.6765497,16.2534527 L29.5575021,16.3323563 L29.5104368,16.1973896 L29.5048997,16.1807783 C29.3325576,15.6865925 29.1636762,15.2000202 28.9588036,14.7598211 C28.5227573,14.6352364 28.0749447,14.6435421 27.6416669,14.6511556 C27.1640924,14.6608455 26.7031292,14.6691512 26.2767728,14.5071911 L26.2636222,14.501654 L26.2504716,14.4926562 C25.8151174,14.1749654 25.4759703,13.8870364 25.3513857,13.62264 C25.2046526,13.3118705 25.312626,13.0481663 25.8165017,12.8370646 L25.8248074,12.834296 L25.837958,12.8308353 C26.3446022,12.7283991 26.747426,12.6114279 27.1384833,12.4570814 C27.5288486,12.3027348 27.9074475,12.1110129 28.3635658,11.8583829 L28.3857142,11.8459244 L28.4120154,11.8445401 C28.5352158,11.8383109 28.6570319,11.8355424 28.7753873,11.8348502 L28.7760794,11.8348502 L28.8605202,11.8348502 C28.8681337,11.6881172 28.7823087,11.5905259 28.657724,11.4500221 C28.3787928,11.1350997 27.9385937,10.6388375 27.7973978,9.14659019 L27.7828629,8.99501219 L27.9316723,9.02754263 C29.1851324,9.30439742 29.9416381,9.72660098 30.3486147,10.1827193 C30.5299545,10.3862075 30.643465,10.5980014 30.7009124,10.8084111 C30.7590519,11.020205 30.759744,11.2299225 30.7161394,11.4278737 C30.6566156,11.6978071 30.5140354,11.9449 30.3216213,12.1449276 C31.078127,12.7422418 31.6816705,13.4413002 32.2962881,14.1535091 M32.4838572,14.7092951 C32.3620411,14.5701756 32.24507,14.4338246 32.1280988,14.2988579 C31.4941014,13.5645005 30.8711781,12.8426017 30.0842183,12.2425189 L29.9769371,12.1608467 L30.0779891,12.0708689 C30.2856302,11.8860684 30.4406689,11.6452047 30.4995005,11.3794241 C30.5354916,11.2160798 30.5347995,11.0423534 30.4863499,10.8665506 C30.4379003,10.6893635 30.340309,10.5080236 30.1825018,10.3315287 C29.819822,9.92386002 29.1456806,9.54387682 28.0348007,9.27948049 C28.182918,10.5793137 28.5732833,11.020205 28.8238369,11.303289 C29.0183274,11.5226964 29.1422199,11.6625081 29.061932,11.9739698 L29.0404758,12.0591026 L28.9532665,12.0577183 L28.930426,12.0570262 L28.8605202,12.0563341 L28.7760794,12.0563341 C28.6722589,12.0570262 28.5629013,12.0604869 28.4480065,12.0653318 C27.9932725,12.3172697 27.6125972,12.5096838 27.2187712,12.6647225 C26.8214846,12.8211454 26.4103552,12.9408851 25.8947132,13.0460899 C25.5527975,13.1914387 25.469049,13.3513223 25.5527975,13.5278173 C25.6566181,13.7493011 25.9666954,14.0102368 26.3681349,14.3037028 C26.752963,14.446283 27.1876251,14.4379774 27.6382062,14.4296718 C28.1040144,14.420674 28.587126,14.4123683 29.0709298,14.5604856 L29.1193794,14.5757127 L29.1387592,14.6207016 L29.1394514,14.6207016 C29.3408632,15.0463658 29.5069761,15.5135583 29.673089,15.9897485 C30.1236701,15.6976667 30.5867098,15.4436524 31.0615157,15.2277057 C31.522479,15.0179882 31.9965928,14.8449539 32.4838572,14.7092951" id="Fill-37" fill="#85392F"></path>
                <path d="M3.06499019,26.5098845 C2.72999589,26.5078081 1.11731673,26.2662523 0.981657879,26.9646185 C0.91036777,27.249779 1.61150253,27.3985884 1.69732752,27.4158918 C2.34793628,27.4837213 2.99923718,27.532863 3.65192235,27.5557035 C4.30529966,27.578544 4.96213765,27.5750834 5.62312847,27.5363237 C11.4640724,27.1971766 17.1492856,24.9657269 19.965591,21.7722069 L19.965591,21.7715148 L20.0341125,21.7175281 L20.0680272,21.6905347 L20.1026341,21.716836 L20.1718478,21.7701305 L20.1718478,21.7701305 C20.2168367,21.8047374 20.2583649,21.8358835 20.294356,21.8628769 L20.294356,21.8628769 C20.4936915,22.010302 20.6992562,22.146653 20.9082815,22.2719298 C21.1173069,22.3972066 21.3311772,22.5107171 21.5498925,22.6152298 C22.638624,23.1308718 23.826331,23.3765804 25.0244202,23.3828097 L25.1614633,23.3828097 C25.3628751,23.3807333 25.5670555,23.3717355 25.7719281,23.3558163 C25.9754164,23.3405893 26.1789046,23.3184409 26.3810086,23.2900633 C27.3915286,23.1474831 28.3868216,22.8429428 29.3156694,22.3958223 L29.3170537,22.3951302 L29.318438,22.3951302 C29.505315,22.3051524 29.6914998,22.2075611 29.874224,22.1058169 C30.0569481,22.0033807 30.2362116,21.8954073 30.4120144,21.7832811 C31.3152532,21.2011939 32.1243613,20.4737579 32.7805072,19.6224295 C33.3176054,18.9268318 33.7259663,18.2070093 34.0021289,17.417281 C34.2727545,16.6407033 34.4153347,15.7956041 34.4250246,14.8383786 C33.5321679,14.7975426 32.5880931,15.0335613 31.5928001,15.4467671 C30.5739745,15.871047 29.5018543,16.4815118 28.3771317,17.174341 L27.7915838,17.5349443 L28.3120708,17.0850553 C29.2450715,16.2780236 30.2327509,15.6405654 31.2799542,15.1913685 C32.3216203,14.7449402 33.4221181,14.4833124 34.5883689,14.4251729 C34.7316413,14.2632128 34.8984463,14.1303225 35.0784019,14.0119671 C35.2632025,13.890151 35.4604615,13.7849462 35.6604891,13.6790492 L35.6604891,13.6783571 C35.780921,13.6146805 35.9027371,13.5496196 36.0204004,13.481098 C36.1394479,13.4125765 36.2550348,13.3405942 36.3650846,13.2609985 L36.3678531,13.2589221 L36.3692374,13.2582299 L36.3747745,13.2547692 L36.4439882,13.2056275 L36.4827479,13.177942 L36.5159704,13.2118567 L36.5817234,13.2783019 C36.7457599,13.4444148 36.8537333,13.6292153 36.8890323,13.8403171 L36.8890323,13.8410093 C36.9236391,14.0507268 36.8855716,14.2839769 36.7582184,14.5449126 C36.6481686,14.7726256 36.4661366,15.0238714 36.200356,15.3014183 C35.9498024,15.5637382 35.6238059,15.8516672 35.2112922,16.1665895 C35.2445148,16.1859693 35.2777374,16.2053492 35.3102678,16.2226526 C35.3580253,16.2482617 35.4064749,16.2711022 35.4556166,16.2918663 C35.6964803,16.3956869 35.932499,16.4385993 36.1588278,16.4296016 L36.1782076,16.4289094 C36.2273493,16.426833 36.276491,16.4212959 36.327017,16.4143746 C36.377543,16.406761 36.4266848,16.3970711 36.4737501,16.3853048 C36.720843,16.3250889 36.9603224,16.2074256 37.1880354,16.047542 L37.1894197,16.0468498 C37.2344086,16.0143194 37.2807818,15.9790204 37.327155,15.9430293 C37.3721439,15.906346 37.4178249,15.8682785 37.4621217,15.8288267 C37.691219,15.6246463 37.9064736,15.3789376 38.1044248,15.1069278 L38.1224204,15.082703 C38.236623,14.9221272 38.3432121,14.7511694 38.4408034,14.5732902 C38.5390868,14.3947188 38.6283725,14.208534 38.7093525,14.0195806 C39.1232504,13.0505888 39.3163567,11.9874664 39.2914397,11.3119407 L39.2229182,9.8307676 L39.2014619,9.36357513 L39.3315837,9.81346417 L39.6368161,10.8662045 C40.1801436,10.2834252 40.5587425,9.75809321 40.8674356,9.21268927 C41.1892793,8.64513695 41.4370644,8.05405197 41.7187641,7.35430148 C41.8329667,7.06914105 41.9492457,6.78051993 42.0634483,6.50920223 C42.1818038,6.2261182 42.3070805,5.94026563 42.4455079,5.6495681 L42.4718091,5.59419714 L42.4849598,5.56581953 L42.5154138,5.56235884 L42.577014,5.55474533 L42.577014,5.55474533 L42.5832432,5.5540532 C42.7230549,5.53744191 42.8607901,5.51944635 42.9971411,5.49937437 C43.1348764,5.4793024 43.2719195,5.45715402 43.4082705,5.43362136 C44.1087131,5.31180525 44.7939287,5.1443081 45.4424611,4.94428052 C45.5220568,4.92005572 45.6085739,4.89237024 45.7006282,4.86260835 C45.7892217,4.8335386 45.876431,4.80377671 45.9629481,4.77470696 C46.0556944,4.74286866 46.139443,4.7137989 46.2141938,4.68680556 C46.286176,4.66050436 46.3657718,4.63074247 46.4488282,4.5995963 C46.7443707,4.3843417 47.0101513,4.17323992 47.2240217,3.97182806 C47.4358156,3.77110834 47.5963913,3.58077067 47.6815242,3.40566001 C47.7500458,3.26307979 47.7597357,3.12880522 47.6925984,3.00698911 C47.6226926,2.87894377 47.4697303,2.75920407 47.2150239,2.6512307 C46.8378092,2.57371136 46.49797,2.49134706 46.1788948,2.39929284 C45.8584354,2.30654649 45.5601244,2.20480235 45.2680425,2.08921547 C44.977345,1.97501287 44.6908003,1.84627539 44.3924893,1.69954235 C44.0969468,1.55488573 43.7924065,1.39223354 43.4622572,1.20950937 L43.4560279,1.20950937 C43.3535917,1.20466441 43.2539239,1.20120373 43.158409,1.19912732 C43.0615099,1.19705091 42.965995,1.19635877 42.8739407,1.19635877 C42.4025954,1.19774304 41.9866211,1.23027348 41.6329391,1.29187367 L41.6280942,1.29325795 L41.6260178,1.29325795 L41.5879502,1.30017932 L41.5478063,1.30779282 C41.4799769,1.32025129 41.4169924,1.33409403 41.3588529,1.34793677 L41.3588529,1.34862891 C41.3187089,1.35831882 41.2771807,1.36939302 41.2349604,1.38115934 L41.2349604,1.38115934 C41.197585,1.39223354 41.157441,1.40399986 41.1159128,1.41853474 L41.1076072,1.42130329 L41.1062229,1.42130329 L41.0695396,1.43306962 L41.0501598,1.43929885 L41.0300878,1.43030107 L40.990636,1.41299764 L40.9899439,1.41299764 C40.6542574,1.25726682 40.3164946,1.10845737 39.9725025,0.978335621 C39.6292026,0.847521732 39.2789813,0.735395541 38.91907,0.652339104 C38.5785386,0.574127625 38.226933,0.520833077 37.862869,0.502837516 C37.5181848,0.486226228 37.1596578,0.500068968 36.786596,0.553363516 C36.8627311,0.821912664 36.968628,1.05862351 37.1042869,1.26141965 C37.2496356,1.47875066 37.4295912,1.65870627 37.6441537,1.80128649 L37.6566122,1.80959213 C37.7223652,1.85250463 37.7901946,1.89195643 37.8614847,1.92794756 C37.9320827,1.96324654 38.0068335,1.99646912 38.085045,2.02623101 L38.085045,2.02623101 C38.4851001,2.17780901 38.969596,2.24356202 39.5371484,2.22349005 L39.7157197,2.2151844 L39.7614007,2.21310799 L39.7724749,2.25671262 L39.7946233,2.34461402 L39.7953154,2.34738257 L39.7953154,2.34876684 C39.8859854,2.75020629 38.2082454,4.47708806 37.1188217,5.59834996 L37.0821385,5.63572536 L37.0821385,5.6364175 L37.0807542,5.63710963 C36.9395583,5.78315054 36.8032073,5.94026563 36.6675484,6.09599645 C36.5076648,6.28010489 36.3477811,6.46421333 36.1809761,6.62894193 L36.180284,6.62963406 L36.1768233,6.63309475 L36.1761312,6.63378689 L36.1429086,6.66493305 L36.1262973,6.6808522 L36.1027647,6.68016006 L36.0577758,6.67808365 L36.0280139,6.67739152 C35.2175215,6.65662741 34.4097976,6.61094636 33.6041502,6.56526532 C30.3462614,6.38115689 27.1112131,6.19774059 24.0422778,7.67199236 C22.7915863,8.27345939 21.6903963,8.98497621 20.7214045,9.79131579 C19.7524128,10.5983475 18.9142349,11.500202 18.1874911,12.4823444 C17.459363,13.4651789 16.8412846,14.5296856 16.3131841,15.6599452 C15.7850836,16.7902049 15.3462688,17.9869098 14.9766676,19.2341406 L14.9766676,19.2355249 L14.9738991,19.2438305 L14.9732069,19.2452148 L14.9711305,19.2507519 L14.9697462,19.2542126 C13.3037725,23.0353569 7.26833807,26.5278801 3.06499019,26.5098845 M34.7184907,16.1181399 L34.8223112,16.0413127 C35.2846587,15.7000892 35.6431857,15.3948568 35.912427,15.1221548 C36.1788997,14.8508371 36.3567789,14.6120499 36.4592152,14.4002559 C36.5422716,14.228606 36.5734178,14.0763358 36.5609593,13.940677 C36.5498851,13.8223216 36.5055884,13.7150403 36.4342983,13.617449 C36.3408598,13.6797413 36.2446527,13.7371887 36.1491378,13.7918675 C36.0370116,13.854852 35.9262697,13.9143758 35.8162199,13.9725153 L35.8079143,13.9773602 C35.4556166,14.1656215 35.1123166,14.3490378 34.8652237,14.6168948 L34.8645316,14.6694972 L34.8645316,14.6701894 C34.8596866,14.9525812 34.8409989,15.2287439 34.8105449,15.4979852 C34.7870123,15.7077027 34.7565582,15.9146517 34.7184907,16.1181399 M26.7266656,23.5734373 C27.2054995,23.4909316 27.6799189,23.3734704 28.1445737,23.222926 C28.3480619,23.157173 28.5494738,23.0851908 28.747425,23.0069793 C28.9467604,22.9294599 29.1433273,22.8450192 29.3371257,22.7550414 L29.3378178,22.7543493 L29.4603261,22.6969019 C30.4611561,22.2151746 31.3886197,21.5735636 32.1811165,20.7962938 C32.3361552,20.6447158 32.4856568,20.4876007 32.6289292,20.3270249 C32.7715094,20.165757 32.9106289,19.998952 33.0435192,19.8266099 L33.0442113,19.8252256 L33.0455956,19.8245335 C33.8297868,18.8070921 34.4063369,17.619385 34.6831917,16.2960191 L34.6984187,16.2191919 L34.7011873,16.2212683 L34.8243877,16.310554 C35.1469235,16.5451884 35.468075,16.6822316 35.7816131,16.7362182 C35.8439054,16.7472924 35.9055056,16.7549059 35.9671058,16.7590588 C36.0280139,16.7632116 36.0896141,16.7645959 36.1512142,16.7632116 L36.1712862,16.7625195 C36.4744422,16.7507531 36.766524,16.6663124 37.0426867,16.5251165 C37.0973655,16.497431 37.1513522,16.466977 37.2046467,16.4351387 C37.2572491,16.4033004 37.3105437,16.3686935 37.362454,16.3327024 L37.3804495,16.3202439 C37.6427694,16.1347512 37.8898623,15.8994246 38.1175754,15.6308755 C38.1604879,15.5810416 38.2040925,15.5270549 38.2483893,15.4702997 C38.2926861,15.4135445 38.3349064,15.3574814 38.3743582,15.3034947 L38.3743582,15.3028026 L38.3750504,15.3021104 C38.9813624,14.4687775 39.4270986,13.4028866 39.6292026,12.4941107 C39.6693465,12.3127708 39.6998005,12.1390444 39.7191804,11.9763922 C39.7392524,11.8130479 39.7496344,11.6566249 39.7489423,11.5112762 L39.7489423,11.510584 L39.7489423,11.4939728 C40.9165774,10.2405127 41.4599049,8.89084558 42.0260729,7.4837311 L42.0274572,7.47888614 C42.132662,7.21725836 42.238559,6.95286203 42.3582987,6.66839373 C42.4683485,6.40468954 42.5839353,6.14029322 42.7078279,5.87589689 C43.4041177,5.78937977 44.0948704,5.65372092 44.7607061,5.48276309 C44.8970571,5.4474641 45.0271789,5.41216512 45.1510714,5.37755827 C45.2763482,5.34225928 45.4050857,5.30419175 45.5352074,5.2640478 L45.5407445,5.26266353 C45.6805562,5.21975104 45.8092937,5.17822282 45.9255727,5.14015528 L45.9262648,5.13946315 L45.9982471,5.11523835 L46.068845,5.09170569 L46.068845,5.09101356 L46.0709214,5.09101356 L46.0716136,5.09101356 C46.1491329,5.06402021 46.2349579,5.03356619 46.3270121,5.00034361 C46.4135292,4.96919745 46.4958935,4.93874342 46.574105,4.90898153 L46.5824107,4.90898153 L46.594177,4.90067589 L46.6017905,4.89790734 L46.6073276,4.89513879 L46.6114804,4.89306238 L46.6232468,4.88475674 L46.6253232,4.88337246 C46.9437062,4.65081444 47.2316352,4.42240923 47.4641932,4.20161754 C47.6995198,3.97736516 47.8801675,3.75934201 47.9812195,3.55031664 C48.0981907,3.30945297 48.1196469,3.08243204 48.0165185,2.87479095 C47.9154665,2.67130267 47.6967512,2.49065492 47.3313029,2.33700051 L47.3313029,2.33769265 L47.3250737,2.33423197 L47.3195366,2.33146342 L47.3133073,2.33007914 L47.2987724,2.3273106 C46.9284792,2.2525598 46.594177,2.17157977 46.2792547,2.08090983 C45.9664088,1.99093202 45.674327,1.89195643 45.3891665,1.77983024 L45.3891665,1.77913811 C45.1012375,1.66562764 44.8188456,1.53827444 44.5260717,1.39361781 C44.2298371,1.24826904 43.9232204,1.08492472 43.5896104,0.900124143 L43.567462,0.887665677 L43.5563878,0.880744307 L43.5439293,0.88005217 L43.5176281,0.877975759 L43.5162439,0.877975759 C42.9729163,0.851674554 42.4856519,0.859288061 42.0606798,0.899432006 C41.9776233,0.907045512 41.8966433,0.916043293 41.8177397,0.926425348 C41.7374518,0.936807402 41.6613167,0.948573731 41.5886424,0.961032197 L41.5754918,0.963108608 C41.5055859,0.975567073 41.4342958,0.989409813 41.36439,1.00532896 L41.324246,1.01363461 L41.3235539,1.01363461 L41.2841021,1.02332453 L41.28341,1.02332453 L41.2799493,1.0247088 C41.2418817,1.03370658 41.2024299,1.04408863 41.1609017,1.05585496 C41.1283713,1.06485274 41.0979172,1.07315839 41.0702318,1.08146403 C40.7400824,0.929886033 40.4064724,0.785229404 40.0652489,0.657184063 C39.7177961,0.525678036 39.3613456,0.412859709 38.9938208,0.327034723 C38.6166062,0.240517601 38.226933,0.183070231 37.8213408,0.167151081 C37.4157485,0.15123193 36.993545,0.175456724 36.5519616,0.252976066 L36.4370668,0.273048039 L36.3796194,0.283430093 L36.3920779,0.340185326 L36.417687,0.454387927 C36.5353503,0.977643484 36.7478363,1.40538414 37.0551451,1.73553348 C37.1139768,1.79921008 37.1776534,1.86011813 37.2454828,1.91825764 C37.3133122,1.97501287 37.3839102,2.02899956 37.4572767,2.07744915 L37.4593531,2.07952556 L37.4600453,2.07952556 C37.7099067,2.24563843 37.99922,2.36883881 38.327985,2.4491267 C38.6304489,2.52318536 38.9675196,2.55986862 39.3378129,2.55986862 C39.1516281,2.91562703 38.4470326,3.71089242 37.7279023,4.47778019 C37.5714793,4.6445852 37.4199013,4.80446885 37.2759368,4.95535471 C37.1382016,5.09862706 36.9921607,5.25020506 36.8481962,5.39832238 L36.847504,5.39832238 L36.8426591,5.40316733 C36.6924654,5.55889816 36.554038,5.7000941 36.4336061,5.82191021 L36.3643924,5.89181604 L36.3007158,5.95687692 L36.3007158,5.95618478 L36.3000237,5.95687692 L36.3000237,5.95756906 L36.129758,6.12783475 L36.0231689,6.23373171 C35.3254948,6.21504401 34.6222837,6.18182144 33.9204568,6.14859886 C30.5116821,5.98594667 27.1202109,5.82467876 23.8990054,7.37160491 C22.6206284,7.98553041 21.4972901,8.71227424 20.5082264,9.53591724 C19.5184705,10.3602524 18.662297,11.2807946 17.9203262,12.2837011 C17.1797396,13.2831469 16.5512792,14.3642648 16.0148731,15.5118279 C15.4791591,16.6566225 15.0348071,17.8678622 14.6610532,19.1282436 C13.0511425,22.7785741 7.14513769,26.1880408 3.0802172,26.1755824 C2.36662398,26.173506 1.77553899,25.9921661 1.11247177,26.3638436 C0.865378866,26.502271 0.609980321,26.7528246 0.647355717,27.0587492 C0.686115388,27.3729794 1.01418832,27.5550114 1.28204533,27.6484499 C1.33464774,27.6671376 1.3900187,27.684441 1.44885034,27.7003601 C1.50698985,27.7155872 1.56928217,27.7308142 1.6371116,27.7439648 L1.64057228,27.7446569 L1.64126442,27.7446569 L1.64887793,27.7460412 L1.6502622,27.7467333 L1.65441502,27.7474255 L1.65718357,27.7474255 C2.31402157,27.815947 2.97501238,27.8657809 3.64015602,27.8886214 C4.30391538,27.9121541 4.97113543,27.9080012 5.64043189,27.8699337 C11.1430736,27.5484386 17.3711193,25.4485127 19.9836039,22.3837226 L19.8158622,21.9358298 L19.9596863,21.7771759 L20.0694733,21.6903992 C21.2034144,22.5467713 22.3706541,23.0671054 23.5711924,23.2514012 C24.7717307,23.4356971 25.8666814,23.4235153 26.8560445,23.2148559 L26.7266656,23.5734373 Z" id="Fill-39-Copy" fill="#85392F"></path>
                <path d="M27.5173591,16.2927661 C28.4385935,17.2603736 28.7306753,18.5878923 28.5251106,19.8974155 C27.6599393,25.4082101 22.6945487,23.4688423 23.828269,25.4753474 C24.8360205,27.2582923 34.8138672,23.6487979 35.283136,27.722024 L19.5612445,27.722024 C18.5929449,25.8345665 20.8043226,23.8086815 21.6722623,23.2743518 C23.0980645,22.3974142 14.6249236,22.4105648 19.0421418,17.5268463 C21.2396767,15.0967534 24.7972608,13.4370089 27.5173591,16.2927661" id="Fill-41"></path>
                <path d="M27.6380678,16.1780098 L27.6415285,16.1814705 L27.6415285,16.1814705 C27.7737267,16.32059 27.8934664,16.4680152 28.0014397,16.6230538 C28.1094131,16.7774004 28.2056201,16.9386683 28.2893687,17.1047812 C28.7198779,17.9581861 28.8410019,18.9576319 28.6894239,19.923163 C28.4229512,21.6195907 27.7778795,22.6321871 27.0359086,23.273106 C26.2939378,23.9133327 25.4578363,24.1798054 24.8065354,24.3874465 L24.8058433,24.3874465 L24.6688002,24.4296668 C24.4743097,24.4891906 24.2715135,24.551483 24.1178591,24.6386922 C23.8721505,24.7771196 23.7454894,24.9902978 23.9732025,25.3938137 L23.9732025,25.3945058 C24.1469289,25.7011225 24.6798744,25.8194779 25.4225373,25.840242 C26.1797352,25.8623904 27.1528798,25.7807182 28.1876246,25.693509 C28.3655038,25.6789741 28.5724527,25.6575179 28.8015501,25.6332931 C30.9734759,25.4090407 35.1359877,24.9792236 35.4633685,27.8266751 L35.4702899,27.8889675 L35.4079976,27.8889675 L19.4943841,27.8889675 L19.4597773,27.8889675 L19.4445502,27.8578213 L19.4438581,27.856437 C19.3123521,27.6044992 19.2306799,27.3477164 19.1919203,27.0916257 C19.1531606,26.8341507 19.1573134,26.5752915 19.1960731,26.3205851 C19.3961007,25.016599 20.5208233,23.7866716 21.5846378,23.13191 L21.5853299,23.13191 C21.6074783,23.1180673 21.6123233,23.1035324 21.6033255,23.0883054 L21.6033255,23.0883054 C21.4822015,22.8917385 20.5540458,22.5830454 19.9954913,22.3968605 C19.8051536,22.3331839 19.655652,22.2847343 19.5933597,22.2570489 L19.589899,22.2549725 C18.8029393,21.8479959 18.2623803,21.3205875 18.0049053,20.9911303 C17.9398445,20.9080739 17.892087,20.8367838 17.8630172,20.7827971 C17.8249497,20.7142755 17.8145677,20.660981 17.8304868,20.630527 L17.8325632,20.625682 L17.836716,20.620837 L17.8401767,20.6166842 L17.8782443,20.570311 L17.9211568,20.6118393 L17.9280781,20.6187606 C18.9614386,21.6002109 20.165757,22.1373092 20.9810943,22.5006811 C21.4766644,22.7221649 21.8324228,22.8813564 21.934167,23.046085 C22.0116863,23.1727461 21.964621,23.2904094 21.7597484,23.4170704 L21.7590563,23.4170704 L21.7583642,23.4170704 C21.5825614,23.525736 21.3998372,23.6551656 21.2184973,23.8018986 C21.0364653,23.9486316 20.8565097,24.1133602 20.6841676,24.2898552 C19.8141514,25.1889411 19.1573134,26.4347877 19.6653419,27.5546653 L35.0875381,27.5546653 C34.8743599,26.5365318 33.9254401,26.0907956 32.6657508,25.9295277 C31.3617648,25.7627227 29.7234765,25.8997658 28.2146179,26.0264269 C27.1411135,26.1164047 26.1305935,26.2015375 25.329791,26.1655464 C24.5144536,26.1302474 23.915063,25.9669031 23.6838893,25.557158 C23.3281308,24.9280055 23.5385405,24.5916269 23.9337507,24.3680667 C24.147621,24.2469427 24.4147859,24.162502 24.6722609,24.0801377 L24.7054834,24.0697556 C25.3221775,23.8731887 26.1132901,23.6212509 26.8088877,23.0218602 C27.5044854,22.4210853 28.1101052,21.4700891 28.3606588,19.872637 C28.5330009,18.7735234 28.3087486,17.7969182 27.8180234,17.012727 C27.4927191,16.4936242 27.0504435,16.0589622 26.5292644,15.7281207 C26.006701,15.3979714 25.4045418,15.1709505 24.7601623,15.0705906 C23.5883743,14.8864822 22.2760826,15.1162716 21.0496159,15.8838516 L21.0475395,15.8852358 L21.0475395,15.8852358 L21.0461552,15.885928 L20.9859393,15.7924895 L20.9880157,15.7911052 L20.9887079,15.7911052 C21.4171406,15.5087133 21.8303464,15.2865373 22.2262488,15.1162716 C22.6235354,14.9460059 23.005595,14.8276505 23.3703512,14.754284 C25.2529638,14.3763772 26.6953773,15.188946 27.6380678,16.1780098" id="Fill-43" fill="#85392F"></path>
            </g>
            <path d="M56.6016,13.7239 C54.0226,19.3179 51.7486,23.8269 49.6946,27.6109 C47.6936,31.2969 45.9046,34.2879 44.2466,36.9209 C45.4846,38.4369 46.5976,39.7079 47.9436,41.1489 C49.3486,42.6529 50.9996,44.3359 53.3026,46.6669 L53.5296,46.8969 L53.3126,47.1359 C50.0326,50.7479 47.0786,53.5549 44.4516,55.7759 C41.8226,57.9999 39.5216,59.6359 37.5496,60.9069 L37.3326,61.0469 L37.1376,60.8739 C34.5026,58.5199 32.5466,56.3399 31.0546,54.4019 C29.8096,52.7839 28.8886,51.3329 28.1666,50.0889 L28.1666,55.9469 L28.1666,56.2729 L27.8396,56.2869 C26.8516,56.3309 25.8876,56.3679 24.9246,56.3989 C23.9756,56.4289 23.0286,56.4539 22.0836,56.4729 C17.2546,56.5689 12.6396,56.5079 8.2666,56.2869 L7.9716,56.2719 L7.9426,55.9799 C7.6726,53.2529 7.3646,49.8369 7.1236,45.8919 C6.8836,41.9469 6.7106,37.4599 6.7106,32.5809 C6.7086,27.1709 6.8826,22.1239 7.3166,17.1049 C7.7496,12.0869 8.4446,7.0949 9.4856,1.7949 L9.5376,1.5319 L9.8046,1.5199 C11.4266,1.4429 13.8216,1.3849 17.2206,1.5199 C20.6196,1.6539 25.0166,1.9799 30.6356,2.6699 L31.0036,2.7149 L30.9276,3.0789 C29.9296,7.8589 29.2386,12.0449 28.7586,15.5899 C28.3492798,18.6140841 28.0933064,21.1760373 27.9320239,23.2414395 C27.9320239,23.3045975 28.0973183,23.2263147 28.4731589,23.3045975 C28.4909136,23.3082956 29.0009656,23.2151828 29.0346173,23.1574131 C29.9461111,21.5926541 31.0082743,19.7167078 32.2456,17.4319 C34.4126,13.4349 37.1046,8.2079 40.4426,1.2529 L40.5916,0.9429 L40.8996,1.0929 C42.8746,2.0579 45.1236,3.3509 47.7156,5.2939 C50.2986,7.2299 53.2186,9.8099 56.5396,13.3479 L56.6976,13.5159 L56.6016,13.7239 Z M6.94246993,42.5672907 L7.61427446,42.3110785 L7.72576571,44.5130138 L7.04651256,44.5777556 L6.94246993,42.5672907 Z M55.8856,13.6469 C52.6556,10.2229 49.8166,7.7209 47.3056,5.8389 C44.8956,4.0309 42.7806,2.7929 40.9076,1.8599 C37.6226,8.6919 34.9766,13.8269 32.8466,17.7559 C31.6905536,19.8892338 30.6831728,21.6739625 29.8066738,23.1849005 C29.4776501,23.2577443 28.4691805,23.2577443 28.4691805,23.2577443 C28.8799553,23.2577443 27.224236,23.5340677 27.224236,23.5340677 C27.3941738,21.3066769 27.6548636,18.6568876 28.0826,15.4989 C28.5516,12.0289 29.2236,7.9489 30.1846,3.3039 C24.7466,2.6459 20.4896,2.3309 17.1936,2.2009 C14.0046,2.0749 11.7066,2.1189 10.1056,2.1889 C9.0976,7.3629 8.4226,12.2489 7.9976,17.1639 C7.5656,22.1609 7.3926,27.1889 7.3926,32.5809 C7.3916,37.4299 7.5656,41.9069 7.8056,45.8519 C8.0376,49.6579 8.3316,52.9569 8.5936,55.6199 C12.8696,55.8279 17.3706,55.8859 22.0696,55.7919 C23.0006,55.7729 23.9456,55.7479 24.9036,55.7169 C25.7496,55.6899 26.6096,55.6569 27.4826,55.6189 L27.4826,49.2809 L27.4826,49.0359 L27.7176,48.9579 L27.9486,48.8819 L28.2156,48.7929 L28.3526,49.0389 C29.1156,50.4049 30.1266,52.0769 31.5946,53.9859 C33.0286,55.8489 34.8986,57.9389 37.3986,60.1909 C39.3006,58.9549 41.5046,57.3739 44.0106,55.2549 C46.5576,53.1019 49.4176,50.3899 52.5906,46.9159 C50.3946,44.6929 48.8006,43.0659 47.4436,41.6139 C46.0366,40.1069 44.8776,38.7799 43.5626,37.1619 L43.4086,36.9719 L43.5386,36.7649 C45.2296,34.0869 47.0546,31.0469 49.0966,27.2849 C51.1136,23.5699 53.3486,19.1409 55.8856,13.6469 Z" id="Path" fill="#85392F"></path>
        </g>
    </g>
</svg>