<?xml version="1.0" encoding="UTF-8"?>
<svg width="51px" height="61px" viewBox="0 0 51 61" version="1.1" xmlns="http://www.w3.org/2000/svg" xmlns:xlink="http://www.w3.org/1999/xlink">
    <!-- Generator: Sketch 45.2 (43514) - http://www.bohemiancoding.com/sketch -->
    <title>Fill 3 Copy</title>
    <desc>Created with Sketch.</desc>
    <defs></defs>
    <g id="Page-1" stroke="none" stroke-width="1" fill="none" fill-rule="evenodd">
        <path d="M50.6016,13.7239 C48.0226,19.3179 45.7486,23.8269 43.6946,27.6109 C41.6936,31.2969 39.9046,34.2879 38.2466,36.9209 C39.4846,38.4369 40.5976,39.7079 41.9436,41.1489 C43.3486,42.6529 44.9996,44.3359 47.3026,46.6669 L47.5296,46.8969 L47.3126,47.1359 C44.0326,50.7479 41.0786,53.5549 38.4516,55.7759 C35.8226,57.9999 33.5216,59.6359 31.5496,60.9069 L31.3326,61.0469 L31.1376,60.8739 C28.5026,58.5199 26.5466,56.3399 25.0546,54.4019 C23.8096,52.7839 22.8886,51.3329 22.1666,50.0889 L22.1666,55.9469 L22.1666,56.2729 L21.8396,56.2869 L21.8126,56.2889 C20.8516,56.3309 19.8876,56.3679 18.9246,56.3989 C17.9756,56.4289 17.0286,56.4539 16.0836,56.4729 C11.2546,56.5689 6.6396,56.5079 2.2666,56.2869 L1.9716,56.2719 L1.9426,55.9799 C1.6726,53.2529 1.3646,49.8369 1.1236,45.8919 C0.8836,41.9469 0.7106,37.4599 0.7106,32.5809 L0.7086,32.5809 C0.7086,27.1709 0.8826,22.1239 1.3166,17.1049 C1.7496,12.0869 2.4446,7.0949 3.4856,1.7949 L3.5376,1.5319 L3.8046,1.5199 C5.4266,1.4429 7.8216,1.3849 11.2206,1.5199 C14.6196,1.6539 19.0166,1.9799 24.6356,2.6699 L25.0036,2.7149 L24.9276,3.0789 C23.9296,7.8589 23.2386,12.0449 22.7586,15.5899 C22.2796,19.1289 22.0106,22.0349 21.8576,24.2529 L21.7866,25.2679 C22.9356,23.3529 24.3946,20.8499 26.2456,17.4319 C28.4126,13.4349 31.1046,8.2079 34.4426,1.2529 L34.5916,0.9429 L34.8996,1.0929 C36.8746,2.0579 39.1236,3.3509 41.7156,5.2939 C44.2986,7.2299 47.2186,9.8099 50.5396,13.3479 L50.6976,13.5159 L50.6016,13.7239 Z" id="Fill-3-Copy" fill="#85392F"></path>
    </g>
</svg>