<?xml version="1.0" encoding="UTF-8"?>
<svg width="478px" height="89px" viewBox="0 0 548 89" version="1.1" xmlns="http://www.w3.org/2000/svg" xmlns:xlink="http://www.w3.org/1999/xlink">
    <!-- Generator: Sketch 43.1 (39012) - http://www.bohemiancoding.com/sketch -->
    <title>julto forym</title>
    <desc>Created with Sketch.</desc>
    <defs></defs>
    <g id="Page-1" stroke="none" stroke-width="1" fill="none" fill-rule="evenodd">
        <g id="julto-forym">
            <path d="M188.2914,40.5814 C183.1364,51.7664 179.2124,58.5844 175.8274,63.9474 C178.4434,67.1644 180.4434,69.2334 185.0594,73.9064 C178.5204,81.1074 173.2884,85.0914 169.3644,87.6194 C164.1324,82.9464 161.5934,78.9624 160.0554,76.2044 L159.8244,76.2814 L159.8244,82.9464 C152.9004,83.2524 146.3604,83.2524 140.2824,82.9464 C139.7434,77.5074 139.0514,69.3094 139.0514,59.5804 C139.0514,48.7784 139.7434,39.4324 141.8204,28.8604 C145.0524,28.7074 151.3614,28.6304 162.5934,30.0094 C160.5934,39.5854 159.8244,46.7874 159.5164,51.2304 L159.3624,53.4514 L159.5164,53.3754 C161.9784,49.3144 166.0564,42.3434 172.7504,28.4004 C176.6734,30.3164 181.6744,33.5334 188.2914,40.5814" id="Fill-1" fill="#F2B628"></path>
            <path d="M181.0966,54.2849 C183.1136,50.5699 185.3486,46.1409 187.8856,40.6469 C184.6556,37.2229 181.8166,34.7209 179.3056,32.8389 C176.8956,31.0309 174.7806,29.7929 172.9076,28.8599 C169.6226,35.6919 166.9766,40.8269 164.8466,44.7559 C162.6866,48.7419 161.0456,51.5109 159.8076,53.5509 L159.7556,53.6379 L159.6686,53.6809 L159.5146,53.7579 L158.9806,54.0239 L159.0216,53.4289 L159.1756,51.2069 C159.3296,48.9829 159.5996,46.0649 160.0826,42.4989 C160.5516,39.0289 161.2236,34.9489 162.1846,30.3039 C156.7466,29.6459 152.4896,29.3309 149.1936,29.2009 C146.0046,29.0749 143.7066,29.1189 142.1056,29.1889 C141.0976,34.3629 140.4226,39.2489 139.9976,44.1639 C139.5656,49.1609 139.3926,54.1889 139.3926,59.5809 L139.3916,59.5809 C139.3916,64.4299 139.5656,68.9069 139.8056,72.8519 C140.0376,76.6579 140.3316,79.9569 140.5936,82.6199 C144.8696,82.8279 149.3706,82.8859 154.0696,82.7919 C155.0006,82.7729 155.9456,82.7479 156.9036,82.7169 C157.7496,82.6899 158.6096,82.6569 159.4826,82.6189 L159.4826,76.2809 L159.4826,76.0359 L159.7176,75.9579 L159.9486,75.8819 L160.2156,75.7929 L160.3526,76.0389 C161.1156,77.4049 162.1266,79.0769 163.5946,80.9859 C165.0286,82.8489 166.8986,84.9389 169.3986,87.1909 C171.3006,85.9549 173.5046,84.3739 176.0106,82.2549 C178.5576,80.1019 181.4176,77.3899 184.5906,73.9159 C182.3946,71.6929 180.8006,70.0659 179.4436,68.6139 C178.0366,67.1069 176.8776,65.7799 175.5626,64.1619 L175.4086,63.9719 L175.5386,63.7649 C177.2296,61.0869 179.0546,58.0469 181.0966,54.2849 L181.0966,54.2849 Z M188.6016,40.7239 C186.0226,46.3179 183.7486,50.8269 181.6946,54.6109 C179.6936,58.2969 177.9046,61.2879 176.2466,63.9209 C177.4846,65.4369 178.5976,66.7079 179.9436,68.1489 C181.3486,69.6529 182.9996,71.3359 185.3026,73.6669 L185.5296,73.8969 L185.3126,74.1359 C182.0326,77.7479 179.0786,80.5549 176.4516,82.7759 C173.8226,84.9999 171.5216,86.6359 169.5496,87.9069 L169.3326,88.0469 L169.1376,87.8739 C166.5026,85.5199 164.5466,83.3399 163.0546,81.4019 C161.8096,79.7839 160.8886,78.3329 160.1666,77.0889 L160.1666,82.9469 L160.1666,83.2729 L159.8396,83.2869 L159.8126,83.2889 C158.8516,83.3309 157.8876,83.3679 156.9246,83.3989 C155.9756,83.4289 155.0286,83.4539 154.0836,83.4729 C149.2546,83.5689 144.6396,83.5079 140.2666,83.2869 L139.9716,83.2719 L139.9426,82.9799 C139.6726,80.2529 139.3646,76.8369 139.1236,72.8919 C138.8836,68.9469 138.7106,64.4599 138.7106,59.5809 L138.7086,59.5809 C138.7086,54.1709 138.8826,49.1239 139.3166,44.1049 C139.7496,39.0869 140.4446,34.0949 141.4856,28.7949 L141.5376,28.5319 L141.8046,28.5199 C143.4266,28.4429 145.8216,28.3849 149.2206,28.5199 C152.6196,28.6539 157.0166,28.9799 162.6356,29.6699 L163.0036,29.7149 L162.9276,30.0789 C161.9296,34.8589 161.2386,39.0449 160.7586,42.5899 C160.2796,46.1289 160.0106,49.0349 159.8576,51.2529 L159.7866,52.2679 C160.9356,50.3529 162.3946,47.8499 164.2456,44.4319 C166.4126,40.4349 169.1046,35.2079 172.4426,28.2529 L172.5916,27.9429 L172.8996,28.0929 C174.8746,29.0579 177.1236,30.3509 179.7156,32.2939 C182.2986,34.2299 185.2186,36.8099 188.5396,40.3479 L188.6976,40.5159 L188.6016,40.7239 Z" id="Fill-3" fill="#85392F"></path>
            <path d="M215.8052,64.1166 C219.7852,64.1166 222.7522,63.9726 226.5152,63.3956 C226.3712,65.6296 226.0812,71.8996 227.3112,81.2666 C221.3042,82.0596 216.1672,82.2746 209.1472,82.2746 C203.2122,82.2746 197.6412,82.0596 192.5752,81.6986 C192.3582,80.1856 190.5492,66.2066 190.5492,53.1636 C190.5492,43.4356 191.5622,36.4456 192.2852,32.1226 C197.7852,31.4016 201.4042,31.3296 206.7592,31.3296 C214.4302,31.3296 219.4232,31.4016 227.0222,32.4826 C226.4422,36.8056 226.2982,42.5706 226.2982,45.3816 L226.2982,48.3356 C225.2852,48.2636 221.8832,48.0476 219.3512,48.0476 C215.8772,48.0476 212.4762,48.4076 210.6672,48.6246 C210.7392,49.6326 210.9562,53.9566 210.9562,56.0466 C210.9562,58.2076 210.7392,62.1706 210.6672,64.1166 L215.8052,64.1166 Z M223.4032,49.5606 C224.1272,51.1456 225.0682,53.3796 226.0092,56.9826 C221.8832,59.1446 217.7582,60.8016 213.9232,62.0266 C212.9822,59.8646 212.7652,58.9286 211.4632,54.8206 C215.2262,52.5156 219.2062,50.7856 223.4032,49.5606 L223.4032,49.5606 Z" id="Fill-7" fill="#F2B628"></path>
            <path d="M221.2617,64.2932 C219.5367,64.4022 217.7947,64.4382 215.8047,64.4382 L215.8047,64.4372 L210.6667,64.4372 L210.3347,64.4372 L210.3467,64.1052 C210.3667,63.5412 210.3997,62.8362 210.4337,62.0572 C210.5237,60.0762 210.6347,57.6172 210.6357,56.0792 L210.6347,56.0792 L210.6347,56.0462 C210.6347,54.5452 210.5247,51.9182 210.4347,50.1792 C210.4177,49.8442 210.4007,49.5362 210.3857,49.2722 C210.3727,49.0312 210.3587,48.8222 210.3477,48.6622 L210.3467,48.6472 L210.3247,48.3412 L210.6297,48.3052 C211.5357,48.1962 212.8427,48.0522 214.3607,47.9342 C215.8807,47.8172 217.6087,47.7262 219.3507,47.7262 C221.1607,47.7262 223.4287,47.8372 224.9467,47.9272 C225.2527,47.9452 225.5177,47.9622 225.7377,47.9762 L225.9777,47.9902 L225.9777,45.3812 L225.9757,45.3812 C225.9757,43.3612 226.0517,39.8152 226.3077,36.3662 C226.3577,35.7102 226.4147,35.0432 226.4807,34.3742 C226.5357,33.8222 226.5967,33.2812 226.6637,32.7572 C223.0127,32.2462 219.9597,31.9692 216.9027,31.8212 C213.7697,31.6702 210.6007,31.6522 206.7597,31.6522 C204.0747,31.6522 201.8297,31.6702 199.5917,31.7762 C197.4027,31.8812 195.1967,32.0712 192.5637,32.4102 C192.2097,34.5382 191.7947,37.2832 191.4647,40.6472 C191.1227,44.1352 190.8707,48.3032 190.8707,53.1642 C190.8707,62.5232 191.8027,72.3622 192.4087,77.7202 C192.5227,78.7362 192.6297,79.6182 192.7157,80.3052 C192.7757,80.7852 192.8247,81.1492 192.8577,81.3962 C194.9027,81.5392 197.0177,81.6582 199.1917,81.7492 C199.6417,81.7682 200.0887,81.7852 200.5327,81.8012 C203.2957,81.9002 206.1637,81.9542 209.1167,81.9542 L209.1167,81.9532 L209.1467,81.9532 L209.1467,81.9542 C212.6457,81.9542 215.6797,81.9002 218.5927,81.7482 C221.3957,81.6012 224.0807,81.3612 226.9527,80.9902 C226.3667,76.4342 226.1397,72.6212 226.0777,69.6622 C226.0207,66.9542 226.1017,64.9652 226.1717,63.7722 C224.4397,64.0272 222.8637,64.1922 221.2617,64.2932 L221.2617,64.2932 Z M224.3227,52.6252 C223.9277,51.5482 223.5567,50.6782 223.2267,49.9462 C221.2367,50.5392 219.2927,51.2482 217.3987,52.0792 C215.4987,52.9142 213.6477,53.8722 211.8457,54.9632 C212.0837,55.7182 212.3027,56.4192 212.4927,57.0302 C213.1617,59.1732 213.4607,60.1272 214.1027,61.6322 C216.7677,60.7702 219.5707,59.6972 222.4137,58.3922 C222.9857,58.1292 223.5587,57.8572 224.1327,57.5752 C224.6327,57.3302 225.1337,57.0772 225.6347,56.8172 C225.1887,55.1422 224.7437,53.7712 224.3227,52.6252 L224.3227,52.6252 Z M223.6947,49.4272 C224.0607,50.2302 224.4817,51.1952 224.9257,52.4042 C225.3717,53.6172 225.8447,55.0862 226.3197,56.9022 L226.3827,57.1442 L226.1637,57.2642 L226.1597,57.2662 L226.1537,57.2692 C225.5727,57.5732 224.9927,57.8672 224.4147,58.1512 C223.8347,58.4352 223.2567,58.7102 222.6797,58.9752 C219.7157,60.3362 216.7927,61.4462 214.0197,62.3322 L213.7447,62.4202 L213.6297,62.1552 C212.8877,60.4512 212.5927,59.5062 211.8797,57.2212 C211.7127,56.6852 211.5207,56.0692 211.2707,55.2792 C211.2757,55.5572 211.2777,55.8162 211.2777,56.0462 L211.2777,56.0792 L211.2767,56.0792 C211.2747,57.6462 211.1647,60.1042 211.0747,62.0852 C211.0467,62.7232 211.0197,63.3122 211.0007,63.7962 L215.8047,63.7962 L215.8047,63.7952 C217.7947,63.7952 219.5267,63.7592 221.2217,63.6522 C222.9187,63.5452 224.5927,63.3652 226.4677,63.0782 L226.8617,63.0172 L226.8357,63.4162 C226.7637,64.5302 226.6557,66.6502 226.7177,69.6502 C226.7817,72.6572 227.0157,76.5542 227.6297,81.2252 L227.6707,81.5422 L227.3527,81.5842 C224.3387,81.9822 221.5437,82.2352 218.6247,82.3892 C215.7127,82.5412 212.6677,82.5952 209.1467,82.5952 L209.1467,82.5972 L209.1167,82.5972 L209.1167,82.5952 C206.1477,82.5952 203.2727,82.5412 200.5097,82.4422 C200.0537,82.4262 199.6047,82.4082 199.1657,82.3902 C196.8677,82.2942 194.6597,82.1692 192.5527,82.0192 L192.2937,82.0012 L192.2567,81.7442 L192.2567,81.7362 C192.2237,81.5052 192.1587,81.0352 192.0777,80.3832 C191.9957,79.7342 191.8907,78.8652 191.7697,77.7902 C191.1627,72.4152 190.2267,62.5452 190.2267,53.1642 C190.2267,48.2972 190.4817,44.1052 190.8267,40.5862 C191.1717,37.0672 191.6067,34.2332 191.9687,32.0702 L192.0087,31.8352 L192.2437,31.8052 C195.0057,31.4432 197.2937,31.2432 199.5617,31.1352 C201.8457,31.0262 204.0887,31.0082 206.7597,31.0082 C210.5877,31.0082 213.7527,31.0262 216.9327,31.1802 C220.1017,31.3342 223.2597,31.6232 227.0667,32.1652 L227.3827,32.2102 L227.3397,32.5252 L227.3357,32.5582 C227.2557,33.1572 227.1837,33.7882 227.1187,34.4362 C227.0567,35.0662 226.9997,35.7312 226.9487,36.4142 C226.6937,39.8362 226.6197,43.3672 226.6197,45.3812 L226.6187,45.3812 L226.6187,48.3352 L226.6187,48.6792 L226.2767,48.6562 L226.2607,48.6552 C226.1087,48.6442 225.9137,48.6302 225.6977,48.6172 C225.4597,48.6012 225.1917,48.5842 224.9087,48.5682 C223.4097,48.4792 221.1647,48.3692 219.3507,48.3692 C217.6197,48.3692 215.9097,48.4592 214.4087,48.5752 C213.0667,48.6792 211.8877,48.8042 211.0077,48.9072 L211.0267,49.2372 C211.0417,49.4902 211.0587,49.7982 211.0757,50.1472 C211.1417,51.4162 211.2177,53.1472 211.2547,54.5722 L211.2957,54.5472 C213.1887,53.3872 215.1377,52.3712 217.1417,51.4912 C219.1437,50.6132 221.2007,49.8692 223.3137,49.2522 L223.5797,49.1752 L223.6947,49.4272 Z" id="Fill-9" fill="#85392F"></path>
            <path d="M247.8656,30.6813 C251.5566,30.6813 253.4376,30.8253 255.2466,31.1133 C254.2346,37.2383 253.6546,40.3373 253.7266,45.8853 C255.8986,45.7413 258.2866,45.6693 260.7466,45.7413 C260.8196,41.7783 261.5436,35.9413 262.9906,31.5463 C267.3326,31.1863 269.6476,30.9693 271.6746,30.9693 C275.5106,30.9693 278.9836,31.2573 281.5166,31.6903 C279.9236,42.6433 279.7066,45.9583 279.7066,54.2443 C279.7066,62.8193 279.9966,69.4483 281.6616,81.4823 C279.0556,81.6263 274.4246,81.8423 270.8056,81.8423 C267.3326,81.8423 265.0166,81.6263 262.6286,81.2663 C261.1816,71.0343 260.8196,63.9003 260.6736,59.4333 C258.5756,59.5053 256.4046,59.5053 254.2336,59.4333 C254.5226,68.1523 255.1746,75.3573 255.8256,80.8343 C251.4116,81.4823 244.5366,82.1313 235.9966,81.6993 C234.4056,72.0433 233.3196,59.8653 233.3196,49.5603 C233.3196,43.0753 233.6096,37.3113 234.3326,31.3293 C237.5896,31.0413 242.1486,30.6813 247.8656,30.6813" id="Fill-11" fill="#F2B628"></path>
            <path d="M252.243,31.1098 C251.099,31.0388 249.712,31.0028 247.866,31.0028 C245.003,31.0028 242.442,31.0928 240.194,31.2178 C238.074,31.3358 236.204,31.4888 234.621,31.6278 C234.276,34.5268 234.033,37.3728 233.875,40.2728 C233.714,43.2558 233.641,46.3138 233.641,49.5608 C233.641,56.9668 234.203,65.3398 235.11,73.0448 C235.287,74.5528 235.477,76.0268 235.676,77.4528 C235.865,78.8058 236.065,80.1208 236.272,81.3908 C240.425,81.5918 244.18,81.5358 247.441,81.3518 C250.61,81.1718 253.317,80.8688 255.47,80.5608 C255.157,77.8908 254.844,74.8198 254.574,71.3748 C254.294,67.8058 254.059,63.8208 253.913,59.4428 L253.902,59.1008 L254.244,59.1128 C255.794,59.1638 257.343,59.1778 258.862,59.1568 C259.154,59.1518 259.45,59.1468 259.75,59.1388 C260.04,59.1318 260.334,59.1238 260.632,59.1138 L260.664,59.1128 L260.984,59.1018 L260.994,59.4228 C261.066,61.6438 261.193,64.5338 261.483,68.1628 C261.768,71.7268 262.211,75.9838 262.913,80.9838 C264.02,81.1458 265.119,81.2778 266.334,81.3698 C267.634,81.4678 269.074,81.5208 270.806,81.5208 C273.413,81.5208 276.522,81.4108 279.024,81.2948 C279.496,81.2738 279.965,81.2498 280.417,81.2278 C280.722,81.2118 281.017,81.1958 281.296,81.1808 C280.491,75.3208 280.015,70.7458 279.739,66.5868 C279.458,62.3378 279.385,58.5328 279.385,54.2448 C279.385,50.0968 279.44,47.1908 279.694,43.9438 C279.943,40.7658 280.384,37.2658 281.154,31.9558 C280.171,31.7968 279.063,31.6598 277.862,31.5528 C277.651,31.5348 277.384,31.5128 277.066,31.4888 C275.405,31.3628 273.587,31.2898 271.689,31.2898 L271.689,31.2918 L271.674,31.2918 C269.9,31.2918 267.895,31.4588 264.481,31.7448 L263.23,31.8488 C262.24,34.9348 261.6,38.6978 261.288,42.0088 C261.226,42.6628 261.177,43.3068 261.14,43.9308 C261.103,44.5548 261.079,45.1438 261.068,45.6878 L261.067,45.7468 L261.061,46.0708 L260.738,46.0618 C258.987,46.0108 257.271,46.0328 255.644,46.1018 C255.337,46.1148 255.021,46.1308 254.702,46.1478 C254.4,46.1648 254.092,46.1838 253.78,46.2038 L253.747,46.2058 L253.411,46.2288 L253.407,45.8898 C253.338,40.6508 253.846,37.5928 254.749,32.1558 L254.877,31.3808 C254.084,31.2638 253.255,31.1728 252.243,31.1098 M247.866,30.3598 C249.71,30.3598 251.109,30.3958 252.28,30.4688 C253.447,30.5418 254.38,30.6508 255.297,30.7968 L255.616,30.8478 L255.563,31.1648 L255.382,32.2588 C254.505,37.5438 254.003,40.5678 254.044,45.5428 C254.246,45.5308 254.453,45.5188 254.667,45.5078 L254.668,45.5078 C254.971,45.4908 255.287,45.4748 255.618,45.4608 C257.157,45.3958 258.777,45.3718 260.434,45.4118 C260.447,44.9228 260.468,44.4148 260.499,43.8928 C260.535,43.2768 260.586,42.6258 260.65,41.9488 C260.973,38.5208 261.643,34.6118 262.685,31.4458 L262.752,31.2438 L262.964,31.2258 L264.428,31.1038 C267.861,30.8168 269.877,30.6478 271.674,30.6478 L271.689,30.6478 L271.689,30.6488 C273.62,30.6488 275.453,30.7218 277.114,30.8478 C277.338,30.8648 277.604,30.8868 277.917,30.9148 C279.278,31.0358 280.51,31.1928 281.57,31.3738 L281.879,31.4268 L281.834,31.7358 C281.04,37.2028 280.588,40.7638 280.335,43.9908 C280.083,47.2108 280.029,50.1068 280.029,54.2448 C280.029,58.5308 280.101,62.3288 280.38,66.5468 C280.66,70.7728 281.148,75.4318 281.979,81.4388 L282.027,81.7838 L281.679,81.8028 L281.659,81.8048 C281.301,81.8238 280.895,81.8458 280.45,81.8688 C280.028,81.8898 279.561,81.9128 279.052,81.9358 C276.521,82.0528 273.392,82.1648 270.806,82.1648 C269.064,82.1648 267.609,82.1098 266.286,82.0108 C264.964,81.9108 263.781,81.7658 262.581,81.5848 L262.345,81.5488 L262.311,81.3108 C261.585,76.1818 261.132,71.8348 260.842,68.2138 C260.567,64.7708 260.439,61.9628 260.365,59.7628 C260.168,59.7688 259.968,59.7758 259.765,59.7798 C259.473,59.7868 259.174,59.7928 258.87,59.7978 C257.45,59.8178 256.008,59.8058 254.566,59.7638 C254.711,63.9718 254.941,67.8358 255.215,71.3238 C255.495,74.8958 255.82,78.0628 256.145,80.7968 L256.182,81.1068 L255.872,81.1518 C253.66,81.4768 250.828,81.8028 247.476,81.9918 C244.129,82.1818 240.264,82.2358 235.982,82.0188 L235.724,82.0058 L235.68,81.7518 L235.679,81.7418 L235.679,81.7398 C235.455,80.3828 235.242,78.9788 235.041,77.5408 C234.838,76.0908 234.647,74.6118 234.471,73.1178 C233.561,65.3868 232.998,56.9858 232.998,49.5608 C232.998,46.3228 233.071,43.2558 233.234,40.2398 C233.398,37.2278 233.652,34.2838 234.014,31.2918 L234.045,31.0328 L234.305,31.0088 C235.925,30.8668 237.873,30.7048 240.159,30.5768 C242.434,30.4508 245.011,30.3598 247.866,30.3598" id="Fill-13" fill="#85392F"></path>
            <path d="M306.3397,50.1369 C306.0497,52.8029 306.0497,54.4609 306.0497,57.4149 C306.0497,65.6299 306.2677,70.0259 307.4257,81.4109 C301.0577,81.9869 294.5447,82.0599 287.5247,81.2669 C286.6557,72.6919 286.2947,64.2609 286.2947,56.9109 C286.2947,47.9039 286.8737,39.9769 288.3937,31.5459 C290.2027,31.4739 296.8597,31.1139 301.0577,31.1139 C304.9647,31.1139 312.9977,31.3299 320.7407,32.1229 C319.8727,38.2479 319.7277,42.1389 319.7277,45.3809 L319.7277,50.0649 C311.6947,50.1369 312.2017,49.8489 306.3397,50.1369" id="Fill-15" fill="#F2B628"></path>
            <path d="M305.766,53.6579 C305.802,52.5299 305.875,51.4409 306.02,50.1029 L306.05,49.8299 L306.325,49.8169 C309.684,49.6519 310.959,49.6759 312.944,49.7129 C314.375,49.7389 316.176,49.7729 319.406,49.7469 L319.406,45.3809 C319.406,43.7589 319.442,41.9709 319.588,39.8119 C319.728,37.7399 319.969,35.3319 320.376,32.4079 C317.255,32.0959 314.097,31.8759 311.19,31.7249 C310.592,31.6939 310.017,31.6669 309.464,31.6419 C306.004,31.4889 303.027,31.4339 301.077,31.4339 L301.077,31.4349 L301.058,31.4349 C297.692,31.4349 292.789,31.6649 290.031,31.7929 C289.482,31.8189 289.019,31.8409 288.663,31.8559 C287.932,35.9649 287.422,39.9639 287.095,44.0379 C286.76,48.1989 286.615,52.4239 286.615,56.9109 L286.616,56.9109 C286.616,62.1929 286.803,68.0299 287.23,74.0719 C287.312,75.2359 287.405,76.4209 287.508,77.6249 C287.606,78.7679 287.709,79.8859 287.818,80.9759 C291.228,81.3509 294.515,81.5229 297.72,81.5319 C300.899,81.5399 304.004,81.3889 307.074,81.1199 C306.514,75.5929 306.179,71.7249 305.983,68.2419 C305.783,64.6749 305.728,61.5189 305.728,57.4149 C305.728,55.9549 305.728,54.8139 305.766,53.6579 M306.629,50.4439 C306.504,51.6479 306.44,52.6499 306.407,53.6779 C306.372,54.7549 306.372,55.9219 306.372,57.4149 C306.372,61.5259 306.426,64.6749 306.624,68.2069 C306.823,71.7529 307.167,75.6949 307.745,81.3799 L307.777,81.7009 L307.454,81.7299 C304.262,82.0189 301.031,82.1809 297.72,82.1729 C294.402,82.1639 291.007,81.9829 287.489,81.5859 L287.231,81.5559 L287.205,81.2979 L287.203,81.2719 C287.078,80.0359 286.966,78.8369 286.867,77.6779 C286.766,76.4989 286.673,75.3109 286.589,74.1169 C286.16,68.0509 285.973,62.1979 285.973,56.9109 L285.974,56.9109 C285.974,52.3909 286.119,48.1489 286.454,43.9879 C286.789,39.8229 287.315,35.7229 288.078,31.4899 L288.124,31.2359 L288.381,31.2259 L288.409,31.2249 C288.763,31.2109 289.318,31.1839 290.003,31.1519 C292.781,31.0229 297.719,30.7919 301.058,30.7919 L301.077,30.7919 L301.077,30.7929 C303.041,30.7939 306.032,30.8479 309.492,31.0009 C310.067,31.0259 310.646,31.0539 311.223,31.0839 C314.241,31.2409 317.532,31.4719 320.773,31.8039 L321.105,31.8379 L321.059,32.1669 C320.626,35.2189 320.373,37.7159 320.229,39.8539 C320.085,41.9829 320.049,43.7619 320.049,45.3809 L320.049,50.0649 L320.049,50.3829 L319.73,50.3859 C316.289,50.4159 314.413,50.3809 312.934,50.3539 C311.021,50.3179 309.774,50.2939 306.629,50.4439" id="Fill-17" fill="#85392F"></path>
            <path d="M339.4124,27.9433 C341.8734,32.4823 345.2024,38.3913 349.7604,45.0213 C352.9454,40.0483 355.1884,35.7253 359.1684,27.5103 C367.9974,31.8343 372.4124,34.4283 376.1744,37.1673 C369.9514,51.2183 355.0434,73.9883 343.8984,87.8963 C337.0244,84.0773 331.5244,80.0423 327.3274,76.5833 C332.8994,69.8813 336.0104,65.1973 338.0374,61.7393 C329.5704,49.9213 325.3014,41.6343 322.4064,35.3653 C326.0974,33.2753 330.8724,30.8973 339.4124,27.9433" id="Fill-19" fill="#F2B628"></path>
            <path d="M343.5243,35.8614 C341.8633,33.0684 340.4583,30.5414 339.2593,28.3354 C335.1293,29.7714 331.8873,31.0724 329.2233,32.2714 C326.6343,33.4364 324.5973,34.5014 322.8213,35.4994 C324.2433,38.5634 325.9983,42.1094 328.4113,46.3124 C330.8933,50.6344 334.0723,55.6524 338.2993,61.5514 L338.4193,61.7204 L338.3143,61.9014 C337.2983,63.6344 336.0093,65.6764 334.2733,68.1294 C332.5833,70.5174 330.4713,73.2904 327.7793,76.5394 C329.8093,78.2024 332.1433,79.9984 334.7933,81.8404 C337.4843,83.7124 340.4903,85.6244 343.8173,87.4834 C351.8033,77.4874 361.6783,63.0134 368.8983,50.4784 C370.3013,48.0414 371.6133,45.6624 372.7983,43.3874 C373.9273,41.2194 374.9293,39.1664 375.7753,37.2734 C373.9663,35.9674 371.9853,34.6834 369.4123,33.2124 C366.7913,31.7134 363.5713,30.0294 359.3163,27.9404 C357.3943,31.9044 355.8773,34.9574 354.4483,37.6324 C352.9863,40.3744 351.6253,42.7054 350.0303,45.1944 L349.7703,45.6014 L349.4963,45.2034 C347.2093,41.8774 345.2343,38.7374 343.5233,35.8624 L343.5243,35.8614 Z M339.6953,27.7914 C340.9293,30.0684 342.3783,32.6834 344.0743,35.5354 L344.0763,35.5354 C345.7153,38.2904 347.5943,41.2824 349.7503,44.4394 C351.2293,42.1084 352.5133,39.8984 353.8833,37.3314 C355.3333,34.6134 356.8883,31.4804 358.8793,27.3714 L359.0203,27.0814 L359.3093,27.2234 C363.7383,29.3924 367.0553,31.1244 369.7313,32.6544 C372.4133,34.1884 374.4673,35.5284 376.3633,36.9084 L376.5703,37.0584 L376.4703,37.2924 L376.4693,37.2954 L376.4673,37.2994 C375.5923,39.2754 374.5473,41.4204 373.3683,43.6844 C372.1983,45.9304 370.8813,48.3184 369.4533,50.7974 C362.1643,63.4514 352.1793,78.0744 344.1493,88.0974 L343.9803,88.3074 L343.7433,88.1764 C340.2913,86.2584 337.1883,84.2884 334.4263,82.3684 C331.6663,80.4494 329.2343,78.5694 327.1243,76.8304 L326.8753,76.6254 L327.0813,76.3784 C329.8623,73.0324 332.0283,70.1934 333.7503,67.7594 C335.4103,65.4154 336.6613,63.4424 337.6553,61.7564 C333.4763,55.9124 330.3223,50.9314 327.8533,46.6314 C325.3623,42.2914 323.5663,38.6434 322.1153,35.4994 L321.9913,35.2314 L322.2483,35.0864 C324.1033,34.0364 326.2293,32.9134 328.9593,31.6854 C331.6853,30.4594 335.0223,29.1234 339.3083,27.6404 L339.5653,27.5514 L339.6953,27.7914 Z" id="Fill-21" fill="#85392F"></path>
            <path d="M390.7943,30.8252 C399.4793,30.8252 410.4793,32.4112 417.3533,40.5542 C421.4063,45.3092 424.3733,53.0912 420.6823,61.4502 C417.4263,68.8722 409.5383,74.6372 399.9133,75.3572 C400.1303,77.3032 400.3473,79.3932 400.6373,81.6992 C389.8543,82.7792 382.1113,81.5552 380.4473,81.2662 C379.7233,74.4212 379.1433,66.3502 379.1433,56.6942 C379.1433,48.6962 379.3603,40.9862 382.0393,31.4022 C384.4993,31.0412 387.1763,30.8252 390.7943,30.8252 M398.2123,62.0932 C398.2123,64.5942 398.3523,67.2352 398.4933,69.7372 C403.9363,67.6522 404.6343,63.3432 404.6343,60.9802 C404.6343,55.1422 400.1673,53.3352 398.4933,52.7792 C398.3523,55.8372 398.2123,59.0342 398.2123,62.0932" id="Fill-23" fill="#F2B628"></path>
            <path d="M404.6613,32.944 C400.0023,31.54 395.1113,31.147 390.7943,31.147 C388.9883,31.147 387.4213,31.201 386.0043,31.299 C384.6653,31.392 383.4523,31.525 382.2913,31.69 C380.9933,36.383 380.2883,40.624 379.9063,44.673 C379.5193,48.774 379.4653,52.697 379.4653,56.695 C379.4653,61.526 379.6103,65.951 379.8443,70.017 C380.0733,73.995 380.3893,77.64 380.7403,80.991 C381.7283,81.155 383.9593,81.487 387.1413,81.676 C390.5493,81.878 395.0473,81.916 400.2773,81.412 C400.0823,79.833 399.9153,78.315 399.7573,76.876 C399.7063,76.402 399.6543,75.936 399.5943,75.393 L399.5573,75.062 L399.8893,75.037 C406.7303,74.525 412.6803,71.436 416.6763,67.015 C417.4493,66.159 418.1523,65.249 418.7753,64.295 L418.7753,64.296 C419.3963,63.346 419.9343,62.355 420.3833,61.334 L420.3883,61.322 L420.3883,61.321 C423.0013,55.403 422.2213,49.778 420.0923,45.347 C419.6803,44.489 419.2133,43.67 418.7083,42.9 C418.2053,42.132 417.6683,41.418 417.1113,40.764 L417.1083,40.761 L417.1083,40.761 C413.7173,36.744 409.3013,34.342 404.6613,32.944 M390.7943,30.504 C395.1613,30.504 400.1143,30.903 404.8443,32.328 C409.5933,33.759 414.1163,36.221 417.5983,40.346 L417.5993,40.348 C418.1763,41.025 418.7313,41.762 419.2463,42.549 C419.7603,43.333 420.2403,44.176 420.6703,45.07 C422.8703,49.65 423.6763,55.464 420.9763,61.58 L420.9753,61.58 L420.9713,61.59 C420.5083,62.645 419.9523,63.667 419.3133,64.646 L419.3133,64.647 C418.6763,65.621 417.9523,66.558 417.1513,67.444 C413.1153,71.911 407.1393,75.052 400.2683,75.651 L400.3963,76.809 C400.5603,78.306 400.7343,79.895 400.9563,81.66 L400.9973,81.985 L400.6683,82.018 C395.2563,82.56 390.6083,82.524 387.1033,82.317 C383.5933,82.109 381.2293,81.728 380.3933,81.583 L380.1523,81.542 L380.1273,81.299 C379.7653,77.872 379.4393,74.137 379.2033,70.052 C378.9673,65.958 378.8223,61.519 378.8223,56.695 C378.8223,52.694 378.8763,48.762 379.2673,44.613 C379.6583,40.47 380.3853,36.128 381.7303,31.317 L381.7863,31.114 L381.9923,31.084 C383.2293,30.903 384.5213,30.758 385.9613,30.658 C387.4023,30.558 388.9843,30.504 390.7943,30.504 M397.9793,65.927 C397.9263,64.623 397.8913,63.329 397.8913,62.093 C397.8913,60.584 397.9263,59.012 397.9803,57.426 C398.0333,55.849 398.1023,54.289 398.1733,52.765 L398.1923,52.342 L398.5943,52.475 C399.4563,52.762 401.0403,53.371 402.4123,54.665 C403.7933,55.969 404.9563,57.955 404.9563,60.98 C404.9563,62.198 404.7753,63.919 403.8893,65.611 C403.0023,67.305 401.4143,68.962 398.6083,70.037 L398.1973,70.195 L398.1733,69.755 C398.1033,68.511 398.0333,67.229 397.9793,65.927 M398.5343,62.093 C398.5343,63.357 398.5693,64.636 398.6203,65.902 C398.6663,67.021 398.7263,68.157 398.7883,69.272 C401.1703,68.264 402.5423,66.803 403.3213,65.315 C404.1443,63.742 404.3133,62.126 404.3133,60.98 C404.3133,58.168 403.2423,56.332 401.9723,55.133 C400.8813,54.104 399.6393,53.535 398.7943,53.223 C398.7293,54.62 398.6673,56.04 398.6213,57.446 C398.5693,58.987 398.5343,60.543 398.5343,62.093" id="Fill-25" fill="#85392F"></path>
            <path d="M440.4402,27.9433 C442.9012,32.4823 446.2292,38.3913 450.7892,45.0213 C453.9732,40.0483 456.2172,35.7253 460.1962,27.5103 C469.0262,31.8343 473.4402,34.4283 477.2042,37.1673 C470.9802,51.2183 456.0712,73.9883 444.9282,87.8963 C438.0532,84.0773 432.5522,80.0423 428.3562,76.5833 C433.9272,69.8813 437.0392,65.1973 439.0652,61.7393 C430.5992,49.9213 426.3292,41.6343 423.4342,35.3653 C427.1252,33.2753 431.9012,30.8973 440.4402,27.9433" id="Fill-27" fill="#F2B628"></path>
            <path d="M444.5527,35.862 C442.8907,33.069 441.4857,30.542 440.2877,28.335 C436.1577,29.772 432.9157,31.072 430.2517,32.271 C427.6627,33.436 425.6247,34.502 423.8497,35.499 C425.2707,38.564 427.0267,42.11 429.4387,46.312 C431.9217,50.635 435.0997,55.652 439.3267,61.552 L439.4477,61.72 L439.3417,61.901 C438.3267,63.635 437.0377,65.677 435.3017,68.13 C433.6117,70.518 431.4997,73.29 428.8077,76.539 C430.8377,78.202 433.1717,79.998 435.8217,81.84 C438.5127,83.712 441.5187,85.624 444.8457,87.483 C452.8317,77.487 462.7077,63.013 469.9267,50.478 C471.3307,48.041 472.6417,45.662 473.8267,43.387 C474.9557,41.22 475.9587,39.167 476.8037,37.274 C474.9897,35.965 473.0077,34.68 470.4407,33.212 C467.8197,31.714 464.6007,30.029 460.3447,27.941 C458.4237,31.904 456.9057,34.957 455.4767,37.633 C454.0147,40.374 452.6537,42.706 451.0587,45.195 L450.7987,45.601 L450.5247,45.203 C448.2447,41.888 446.2687,38.745 444.5527,35.862 L444.5527,35.862 Z M440.7227,27.791 C441.9577,30.068 443.4057,32.683 445.1027,35.535 C446.7377,38.283 448.6157,41.274 450.7787,44.439 C452.2577,42.109 453.5417,39.898 454.9117,37.331 C456.3627,34.613 457.9167,31.481 459.9077,27.371 L460.0487,27.082 L460.3377,27.223 C464.7667,29.392 468.0837,31.125 470.7597,32.654 C473.4467,34.191 475.5007,35.531 477.3927,36.907 L477.5997,37.058 L477.4987,37.293 L477.4977,37.295 L477.4967,37.299 C476.6217,39.275 475.5767,41.42 474.3967,43.684 C473.2267,45.93 471.9097,48.319 470.4827,50.797 C463.1937,63.452 453.2077,78.075 445.1777,88.097 L445.0087,88.308 L444.7717,88.176 C441.3197,86.258 438.2167,84.289 435.4537,82.368 C432.6947,80.449 430.2617,78.569 428.1527,76.83 L427.9037,76.626 L428.1097,76.378 C430.8907,73.033 433.0567,70.193 434.7787,67.76 C436.4387,65.415 437.6887,63.442 438.6827,61.757 C434.5037,55.912 431.3507,50.931 428.8817,46.631 C426.3897,42.292 424.5937,38.643 423.1427,35.499 L423.0187,35.232 L423.2757,35.086 C425.1307,34.036 427.2577,32.914 429.9877,31.686 C432.7137,30.46 436.0507,29.123 440.3357,27.64 L440.5927,27.552 L440.7227,27.791 Z" id="Fill-29" fill="#85392F"></path>
            <g id="Kangaroo">
                <polygon id="Fill-5" fill="#FFFFFF" points="126.340685 9.88962712 127.538428 10.0279322 128.297873 10.3553898"></polygon>
                <path d="M4.47674059,77.1176949 C16.9126614,78.9136271 36.0442257,68.5468475 41.8531762,56.3841356 C46.1937307,41.6241356 53.7962653,29.2478644 68.5670772,22.1027797 C80.1526614,16.4993898 91.3827604,18.496678 103.93179,18.8139661 C105.194166,17.5590508 114.345889,8.33125424 114.010602,7.02345763 C109.144899,7.19633898 106.262642,5.26413559 105.36383,1.22684746 C110.385057,0.344135593 114.477176,1.85328814 118.433968,3.70616949 C120.098285,3.14684746 122.532147,2.92108475 125.580028,3.07159322 C129.528741,5.27633898 132.138325,6.41938983 136.547552,7.32040678 C140.201374,8.86413559 138.00585,11.3007458 134.390404,13.9529492 C130.934523,15.2749831 126.965612,16.3326102 122.919949,16.8105763 C120.114444,22.7597288 118.920741,28.4831186 114.117651,33.5841356 C114.33579,39.356339 107.880503,52.9183729 100.522364,47.5346441 C106.034404,43.4302373 106.642364,41.0139661 105.020463,39.3644746 C103.291513,40.6234576 101.172741,41.2397288 99.8740079,42.7610847 C99.7588792,64.4973559 72.8106812,76.5075254 57.1834733,64.3631186 C46.8723842,77.1827797 18.2598693,83.8173559 3.43654257,80.9027797 C-1.00702178,80.0017627 1.12588911,77.2173559 4.47674059,77.1176949" id="Fill-31" fill="#FFFFFF"></path>
                <path d="M88.878004,29.3328814 C88.1670337,28.2955932 86.9369743,27.3030508 85.052499,26.4691525 C85.0666376,28.7715254 85.6766178,30.1342373 86.1391525,31.1735593 C86.9228356,32.9308475 87.336895,33.8623729 84.5879446,36.3071186 L85.4746376,36.6244068 C86.7572119,36.2237288 87.8761822,35.4549153 88.6336079,34.4888136 C89.2092515,33.7545763 89.5748356,32.9064407 89.6435089,32.0216949 L89.6435089,32.019661 C89.7121822,31.1410169 89.4859644,30.219661 88.878004,29.3328814 L88.878004,29.3328814 Z M84.8565782,25.6738983 C87.1167366,26.5972881 88.5770535,27.7464407 89.4112317,28.9627119 C90.1100832,29.9816949 90.3706376,31.0494915 90.2918653,32.0725424 C90.2110733,33.0894915 89.7949941,34.059661 89.1405782,34.8935593 C88.2821624,35.9877966 87.0117069,36.8522034 85.5574495,37.2833898 L85.4564594,37.3118644 L85.3574891,37.2772881 L83.8446574,36.7342373 L83.3114297,36.5450847 L83.7456871,36.1769492 C86.5855287,33.7688136 86.236103,32.9857627 85.5473505,31.44 C85.0262416,30.2725424 84.3334495,28.7166102 84.410202,25.9688136 L84.4243406,25.4969492 L84.8565782,25.6738983 Z" id="Fill-33" fill="#85392F"></path>
                <path d="M93.998404,43.4033898 C91.621097,40.6983051 89.4942455,37.9362712 86.6039089,35.7152542 C89.0236317,33.5430508 89.1912752,28.879322 80.0557109,26.8474576 C80.7121465,33.8298305 83.604503,33.1749153 83.1096515,35.1050847 C82.6188396,35.0969492 82.0936911,35.1050847 81.5402653,35.1315254 C78.8539287,36.6345763 77.0785228,37.4115254 74.077097,38.0257627 C71.5907208,39.0752542 72.9480277,40.519322 75.4081465,42.3254237 C77.7632356,43.2223729 80.5990376,42.2481356 83.3520277,43.100339 C83.992305,44.4569492 84.5093743,45.96 85.0365426,47.4894915 C87.8582059,45.6020339 90.8394337,44.2230508 93.998404,43.4033898" id="Fill-35" fill="#FFFFFF"></path>
                <path d="M92.8612554,41.5911864 C93.3217703,42.1301695 93.7883446,42.6711864 94.2407802,43.1857627 L94.5902059,43.5864407 L94.079196,43.7186441 C92.5219287,44.1233898 91.0030376,44.6664407 89.5245426,45.3437288 C88.0480673,46.0189831 86.6119881,46.8264407 85.216305,47.7620339 L84.868899,47.9938983 L84.7315525,47.5972881 L84.7153941,47.5484746 C84.2124634,46.0962712 83.7196317,44.6664407 83.1217703,43.3728814 C81.849295,43.0067797 80.5424832,43.0311864 79.2780871,43.0535593 C77.8844238,43.0820339 76.5392356,43.1064407 75.2950376,42.6305085 L75.2566614,42.6142373 L75.2182851,42.5877966 C73.9478297,41.6542373 72.9581267,40.8081356 72.5945624,40.0311864 C72.1663644,39.1179661 72.4814535,38.3430508 73.9518693,37.7227119 L73.9761069,37.7145763 L74.0144832,37.7044068 C75.4929782,37.4033898 76.668503,37.059661 77.8096911,36.6061017 C78.9488594,36.1525424 80.0536911,35.5891525 81.3847406,34.8467797 L81.4493743,34.8101695 L81.5261267,34.8061017 C81.8856515,34.7877966 82.2411366,34.779661 82.5865228,34.7776271 L82.5885426,34.7776271 L82.8349584,34.7776271 C82.8571762,34.3464407 82.6067208,34.059661 82.2431564,33.6467797 C81.4291762,32.7213559 80.1445822,31.2630508 79.7325426,26.8779661 L79.6901267,26.4325424 L80.1243842,26.5281356 C83.7822455,27.3416949 85.9898891,28.5823729 87.1775327,29.9227119 C87.7067208,30.520678 88.0379683,31.1430508 88.2056119,31.7613559 C88.3752752,32.3837288 88.377295,33 88.2500475,33.5816949 C88.0763446,34.3749153 87.6602653,35.1010169 87.0987604,35.6888136 C89.306404,37.4440678 91.0676713,39.4983051 92.8612554,41.5911864 M93.4086218,43.2244068 C93.0531366,42.8155932 92.7117901,42.4149153 92.3704436,42.0183051 C90.520305,39.860339 88.7024832,37.7389831 86.4059683,35.9755932 L86.092899,35.7355932 L86.3877901,35.4711864 C86.9937307,34.9281356 87.4461663,34.220339 87.6178495,33.439322 C87.7228792,32.959322 87.7208594,32.4488136 87.5794733,31.9322034 C87.4380871,31.4115254 87.153295,30.8786441 86.6927802,30.36 C85.634404,29.1620339 83.6671168,28.0454237 80.4253347,27.2684746 C80.8575723,31.0881356 81.9967406,32.3837288 82.7279089,33.2155932 C83.2954733,33.860339 83.6570178,34.2711864 83.4227208,35.1864407 L83.3601069,35.4366102 L83.1056119,35.4325424 L83.0389584,35.4305085 L82.8349584,35.4284746 L82.5885426,35.4284746 C82.2855723,35.4305085 81.9664436,35.440678 81.6311564,35.4549153 C80.3041465,36.1952542 79.1932554,36.760678 78.0439881,37.2162712 C76.8846218,37.6759322 75.6848594,38.0277966 74.1801069,38.3369492 C73.1823248,38.7640678 72.9379287,39.2338983 73.1823248,39.7525424 C73.485295,40.4033898 74.3901663,41.1701695 75.5616515,42.0325424 C76.6846614,42.4515254 77.953097,42.4271186 79.2679881,42.4027119 C80.6273149,42.3762712 82.0371366,42.3518644 83.4489782,42.7871186 L83.5903644,42.8318644 L83.6469188,42.9640678 L83.6489386,42.9640678 C84.236701,44.2149153 84.7214535,45.5877966 85.2062059,46.9871186 C86.521097,46.1288136 87.8723446,45.3823729 89.2579287,44.7477966 C90.6031168,44.1315254 91.9866812,43.6230508 93.4086218,43.2244068" id="Fill-37" fill="#85392F"></path>
                <path d="M7.5581505,77.9013559 C6.58056634,77.8952542 1.87442772,77.1854237 1.47854653,79.2376271 C1.27050693,80.0755932 3.31656634,80.5128814 3.56702178,80.5637288 C5.46563564,80.7630508 7.36626931,80.9074576 9.27094257,80.9745763 C11.1776356,81.0416949 13.0944277,81.0315254 15.0233386,80.9176271 C32.0684475,79.9210169 48.659101,73.3637288 56.8776752,63.979322 L56.8776752,63.9772881 L57.0776356,63.8186441 L57.1766059,63.739322 L57.277596,63.8166102 L57.4795762,63.9732203 L57.4795762,63.9732203 C57.6108634,64.0749153 57.7320515,64.1664407 57.8370812,64.2457627 L57.8370812,64.2457627 C58.4187842,64.6789831 59.0186653,65.079661 59.6286455,65.4477966 C60.2386257,65.8159322 60.8627446,66.1494915 61.501002,66.4566102 C64.6781505,67.9718644 68.1441307,68.6938983 71.6404079,68.7122034 L72.0403287,68.7122034 C72.6280911,68.7061017 73.2239327,68.679661 73.8217941,68.6328814 C74.4156158,68.5881356 75.0094376,68.5230508 75.5992198,68.439661 C78.5481307,68.020678 81.4526059,67.1257627 84.1631802,65.8118644 L84.1672198,65.8098305 L84.1712594,65.8098305 C84.7166059,65.5454237 85.2599327,65.2586441 85.7931604,64.959661 C86.3263881,64.6586441 86.8495168,64.3413559 87.3625465,64.0118644 C89.9983881,62.3013559 92.3595366,60.1637288 94.2743089,57.6620339 C95.8416752,55.6179661 97.0333584,53.5027119 97.8392594,51.1820339 C98.629002,48.9 99.0450812,46.4166102 99.0733584,43.6037288 C96.4678139,43.4837288 93.712804,44.1772881 90.8083287,45.3915254 C87.8351802,46.6383051 84.7065069,48.4322034 81.4243287,50.4681356 L79.7155762,51.5277966 L81.2344673,50.2057627 C83.9571604,47.8342373 86.8394178,45.9610169 89.8953782,44.6410169 C92.9351802,43.3291525 96.1466653,42.560339 99.5500317,42.3894915 C99.9681307,41.9135593 100.454903,41.5230508 100.980051,41.1752542 C101.519339,40.8172881 102.094982,40.5081356 102.678705,40.1969492 L102.678705,40.1949153 C103.03015,40.0077966 103.385636,39.8166102 103.729002,39.6152542 C104.076408,39.4138983 104.413715,39.2023729 104.734863,38.9684746 L104.742943,38.9623729 L104.746982,38.960339 L104.763141,38.9501695 L104.965121,38.8057627 L105.07823,38.7244068 L105.17518,38.8240678 L105.367061,39.019322 C105.845754,39.5074576 106.160844,40.0505085 106.263853,40.6708475 L106.263853,40.6728814 C106.364844,41.2891525 106.253754,41.9745763 105.882111,42.7413559 C105.560962,43.4105085 105.029754,44.1488136 104.25415,44.9644068 C103.522982,45.7352542 102.571655,46.5813559 101.367853,47.5067797 C101.464804,47.5637288 101.561754,47.620678 101.656685,47.6715254 C101.796051,47.7467797 101.937438,47.8138983 102.080844,47.8749153 C102.783735,48.18 103.472487,48.3061017 104.132962,48.279661 L104.189517,48.2776271 C104.332923,48.2715254 104.476329,48.2552542 104.623774,48.2349153 C104.77122,48.2125424 104.914626,48.1840678 105.051972,48.1494915 C105.773042,47.9725424 106.471893,47.6267797 107.136408,47.1569492 L107.140448,47.1549153 C107.271735,47.059322 107.407061,46.9555932 107.542388,46.8498305 C107.673675,46.7420339 107.806982,46.6301695 107.93625,46.5142373 C108.604804,45.9142373 109.232962,45.1922034 109.810626,44.3928814 L109.863141,44.3216949 C110.196408,43.8498305 110.507457,43.3474576 110.79225,42.8247458 C111.079061,42.3 111.339616,41.7528814 111.575933,41.1976271 C112.783774,38.3501695 113.347299,35.2261017 113.274586,33.2410169 L113.074626,28.8884746 L113.012012,27.5155932 L113.391735,28.8376271 L114.282467,31.9311864 C115.868012,30.2186441 116.972844,28.6749153 117.873675,27.0722034 C118.812883,25.4044068 119.535972,23.6674576 120.358032,21.6111864 C120.691299,20.7732203 121.030626,19.9250847 121.363893,19.1277966 C121.709279,18.2959322 122.074863,17.4559322 122.478824,16.6016949 L122.555576,16.4389831 L122.593952,16.3555932 L122.682824,16.3454237 L122.862586,16.3230508 L122.862586,16.3230508 L122.880764,16.3210169 C123.288764,16.2722034 123.690705,16.219322 124.088606,16.160339 C124.490547,16.1013559 124.890467,16.0362712 125.288368,15.9671186 C127.332408,15.6091525 129.332012,15.1169492 131.224566,14.5291525 C131.456844,14.4579661 131.709319,14.3766102 131.977952,14.2891525 C132.236487,14.2037288 132.490982,14.1162712 132.743457,14.0308475 C133.014111,13.9372881 133.258507,13.8518644 133.476646,13.7725424 C133.686705,13.6952542 133.918982,13.6077966 134.161358,13.5162712 C135.023814,12.8837288 135.799418,12.2633898 136.423537,11.6715254 C137.041596,11.0816949 137.51019,10.5223729 137.758626,10.0077966 C137.958586,9.58881356 137.986863,9.19423729 137.790943,8.83627119 C137.586943,8.46 137.140566,8.10813559 136.397279,7.79084746 C135.296487,7.56305085 134.304764,7.32101695 133.373636,7.05050847 C132.438467,6.7779661 131.567933,6.47898305 130.715576,6.13932203 C129.867259,5.80372881 129.031061,5.42542373 128.160527,4.99423729 C127.298071,4.56915254 126.409358,4.09118644 125.445913,3.55423729 L125.427735,3.55423729 C125.128804,3.54 124.837952,3.52983051 124.55922,3.52372881 C124.276448,3.51762712 123.997715,3.51559322 123.729081,3.51559322 C122.353596,3.51966102 121.139695,3.61525424 120.107576,3.79627119 L120.093438,3.80033898 L120.087378,3.80033898 L119.976289,3.82067797 L119.859141,3.84305085 C119.6612,3.87966102 119.477398,3.92033898 119.307735,3.96101695 L119.307735,3.96305085 C119.190586,3.99152542 119.069398,4.0240678 118.94619,4.05864407 L118.94619,4.05864407 C118.837121,4.09118644 118.719972,4.12576271 118.598784,4.16847458 L118.574547,4.17661017 L118.570507,4.17661017 L118.463457,4.21118644 L118.406903,4.22949153 L118.348329,4.20305085 L118.2332,4.15220339 L118.23118,4.15220339 C117.251576,3.69457627 116.265913,3.25728814 115.262071,2.87491525 C114.26025,2.49050847 113.23823,2.16101695 112.187933,1.91694915 C111.19419,1.68711864 110.168131,1.53050847 109.105715,1.47762712 C108.099853,1.42881356 107.053596,1.46949153 105.964923,1.62610169 C106.187101,2.41525424 106.496131,3.11084746 106.892012,3.70677966 C107.31617,4.34542373 107.841319,4.87423729 108.467457,5.29322034 L108.503814,5.31762712 C108.695695,5.44372881 108.893636,5.55966102 109.101675,5.66542373 C109.307695,5.76915254 109.525834,5.86677966 109.754071,5.95423729 L109.754071,5.95423729 C110.921517,6.39966102 112.335378,6.59288136 113.991616,6.53389831 L114.512725,6.50949153 L114.646032,6.50338983 L114.678349,6.63152542 L114.742982,6.88983051 L114.745002,6.8979661 L114.745002,6.9020339 C115.009596,8.08169492 110.113596,13.1562712 106.934428,16.4511864 L106.827378,16.5610169 L106.827378,16.5630508 L106.823339,16.5650847 C106.411299,16.9942373 106.013398,17.4559322 105.617517,17.9135593 C105.150943,18.4545763 104.684368,18.9955932 104.197596,19.479661 L104.195576,19.4816949 L104.185477,19.4918644 L104.183457,19.4938983 L104.086507,19.5854237 L104.038032,19.6322034 L103.969358,19.6301695 L103.838071,19.6240678 L103.75122,19.6220339 C101.386032,19.5610169 99.0289228,19.4267797 96.6778733,19.2925424 C87.1706653,18.7515254 77.7301109,18.2125424 68.7743089,22.5447458 C65.1245267,24.3122034 61.9110218,26.4030508 59.083299,28.7725424 C56.2555762,31.1440678 53.809596,33.7942373 51.688804,36.680339 C49.5639723,39.5684746 47.7602891,42.6966102 46.2191802,46.0179661 C44.6780713,49.339322 43.3975168,52.8559322 42.3189426,56.5210169 L42.3189426,56.5250847 L42.3108634,56.5494915 L42.3088436,56.5535593 L42.3027842,56.5698305 L42.2987446,56.58 C37.4370812,67.6911864 19.8244079,77.9542373 7.5581505,77.9013559 M99.9297545,47.3644068 L100.232725,47.1386441 C101.581952,46.1359322 102.62821,45.2389831 103.413913,44.4376271 C104.191537,43.640339 104.710626,42.9386441 105.009556,42.3162712 C105.251933,41.8118644 105.342824,41.3644068 105.306467,40.9657627 C105.27415,40.6179661 105.144883,40.3027119 104.936844,40.0159322 C104.66417,40.1989831 104.383418,40.3677966 104.104685,40.5284746 C103.777477,40.7135593 103.454309,40.8884746 103.13316,41.059322 L103.108923,41.0735593 C102.080844,41.6267797 101.079022,42.1657627 100.357952,42.9528814 L100.355933,43.1074576 L100.355933,43.1094915 C100.341794,43.939322 100.287259,44.7508475 100.198388,45.5420339 C100.129715,46.1583051 100.040844,46.7664407 99.9297545,47.3644068 M7.60258614,76.9189831 C19.4648832,76.9555932 36.6998535,66.9366102 41.3979129,56.2098305 C42.4886059,52.5061017 43.7853188,48.9467797 45.3486455,45.5827119 C46.9139921,42.2105085 48.7479723,39.0335593 50.9091604,36.0966102 C53.0743881,33.1494915 55.5728832,30.4444068 58.4612,28.0220339 C61.347497,25.6016949 64.6256356,23.4661017 68.3562099,21.6620339 C77.7563683,17.1162712 87.653398,17.5901695 97.6009228,18.0681356 C99.649002,18.1657627 101.701121,18.2633898 103.737081,18.3183051 L104.048131,18.0071186 L104.545002,17.5067797 L104.545002,17.5047458 L104.547022,17.5027119 L104.547022,17.5047458 L104.732844,17.3135593 L104.934824,17.1081356 C105.286269,16.7501695 105.69023,16.3352542 106.128527,15.8776271 L106.142665,15.8633898 L106.144685,15.8633898 C106.564804,15.4281356 106.990982,14.9827119 107.392923,14.5616949 C107.813042,14.1183051 108.255378,13.6484746 108.711853,13.1583051 C110.810428,10.9047458 112.866586,8.56779661 113.409913,7.52237288 C112.329319,7.52237288 111.345675,7.41457627 110.463022,7.19694915 C109.503616,6.96101695 108.659339,6.59898305 107.93019,6.11084746 L107.92817,6.11084746 L107.922111,6.10474576 C107.708012,5.96237288 107.501992,5.80372881 107.304051,5.63694915 C107.106111,5.46610169 106.920289,5.28711864 106.748606,5.1 C105.851814,4.12983051 105.231735,2.87288136 104.888368,1.33525424 L104.813636,0.999661017 L104.777279,0.832881356 L104.944923,0.802372881 L105.28021,0.743389831 C106.568844,0.51559322 107.800923,0.44440678 108.984527,0.491186441 C110.168131,0.537966102 111.305279,0.706779661 112.406071,0.961016949 C113.478586,1.21322034 114.518784,1.54474576 115.532725,1.93118644 C116.528487,2.30745763 117.502032,2.73254237 118.465477,3.1779661 C118.546269,3.15355932 118.635141,3.12915254 118.730071,3.10271186 L118.730071,3.10271186 C118.851259,3.06813559 118.966388,3.03762712 119.077477,3.01118644 L119.087576,3.00711864 L119.089596,3.00711864 L119.204725,2.97864407 L119.206745,2.97864407 L119.323893,2.95423729 L119.323893,2.95423729 C119.527893,2.90745763 119.735933,2.86677966 119.939933,2.83016949 L119.978309,2.8240678 C120.190388,2.78745763 120.412566,2.75288136 120.646863,2.72237288 C120.877121,2.69186441 121.113438,2.66542373 121.355814,2.64305085 L121.355814,2.64305085 C122.595972,2.52508475 124.017913,2.50271186 125.603457,2.58 L125.607497,2.58 L125.68425,2.58610169 L125.720606,2.58813559 L125.752923,2.60847458 L125.817556,2.64508475 C126.791101,3.18813559 127.685873,3.66813559 128.550349,4.09525424 C129.404725,4.52033898 130.228804,4.89457627 131.069042,5.22813559 L131.069042,5.23016949 C131.9012,5.55966102 132.753556,5.85050847 133.666507,6.11491525 C134.585517,6.38135593 135.561081,6.61932203 136.641675,6.83898305 L136.641675,6.83898305 L136.684091,6.84711864 L136.702269,6.85118644 L136.718428,6.85932203 L136.736606,6.86949153 L136.736606,6.86745763 C137.803061,7.31898305 138.441319,7.84983051 138.73621,8.44779661 C139.03716,9.0579661 138.974547,9.72508475 138.6332,10.4328814 C138.338309,11.0471186 137.811141,11.6877966 137.124408,12.3467797 C136.445754,12.9955932 135.605517,13.6667797 134.676408,14.3501695 L134.670349,14.3542373 L134.636012,14.3786441 L134.623893,14.3847458 L134.607735,14.3928814 L134.585517,14.4010169 L134.55118,14.4254237 L134.526943,14.4254237 C134.298705,14.5128814 134.058349,14.6023729 133.805873,14.6938983 C133.53724,14.7915254 133.286784,14.8810169 133.060566,14.960339 L133.058547,14.960339 L133.052487,14.960339 L133.052487,14.9623729 L132.846467,15.0315254 L132.636408,15.1027119 L132.634388,15.1047458 C132.295061,15.2166102 131.919378,15.3386441 131.511378,15.4647458 L131.49522,15.4688136 L131.49522,15.4688136 C131.115497,15.5867797 130.739814,15.6986441 130.37423,15.8023729 C130.012685,15.9040678 129.632962,16.0077966 129.235061,16.1115254 C127.292012,16.6138983 125.27625,17.0125424 123.244329,17.2667797 C122.882784,18.0437288 122.545477,18.820678 122.224329,19.5955932 L122.224329,19.5955932 C121.874903,20.4315254 121.565873,21.2084746 121.258863,21.9772881 L121.258863,21.9772881 L121.254824,21.9915254 C119.602626,26.1264407 118.017081,30.0925424 114.609675,33.7759322 L114.609675,33.8247458 L114.609675,33.8267797 C114.611695,34.2538983 114.581398,34.7135593 114.522824,35.1935593 C114.466269,35.6715254 114.377398,36.1820339 114.26025,36.7149153 C113.670467,39.3854237 112.369715,42.5176271 110.600368,44.9664407 L110.600368,44.9664407 L110.598349,44.9684746 L110.598349,44.9705085 C110.48322,45.1291525 110.360012,45.2938983 110.230745,45.460678 C110.101477,45.6274576 109.97423,45.7861017 109.849002,45.9325424 C109.184487,46.7216949 108.463418,47.4132203 107.697913,47.9583051 L107.645398,47.9949153 L107.645398,47.9949153 C107.493913,48.100678 107.338388,48.2023729 107.184883,48.2959322 C107.029358,48.3894915 106.871814,48.4789831 106.71225,48.560339 C105.906349,48.9752542 105.053992,49.2233898 104.169319,49.2579661 L104.169319,49.2579661 L104.110745,49.26 L104.110745,49.26 C103.930982,49.2640678 103.75122,49.26 103.573477,49.2477966 C103.393715,49.2355932 103.213952,49.2132203 103.03217,49.180678 C102.1172,49.0220339 101.180012,48.619322 100.238784,47.9298305 L99.8792594,47.6674576 L99.8711802,47.6613559 L99.8267446,47.8871186 C99.0188238,51.7759322 97.3363287,55.2661017 95.0478931,58.2559322 L95.0438535,58.2579661 L95.0418337,58.2620339 C94.6540317,58.7684746 94.2480515,59.2586441 93.8319723,59.7325424 C93.4138733,60.2044068 92.977596,60.6661017 92.5251604,61.1115254 C90.2124871,63.3955932 87.5059525,65.2810169 84.5853188,66.6966102 L84.2278139,66.8654237 L84.2257941,66.8674576 C83.6602495,67.1318644 83.0866257,67.38 82.5049228,67.6077966 C81.9272594,67.8376271 81.339497,68.0491525 80.7456752,68.2423729 C77.790705,69.2064407 74.7004079,69.7088136 71.6363683,69.6925424 C71.4929624,69.6905085 71.3515762,69.6884746 71.2122099,69.6844068 C70.4931604,69.6701695 69.7781505,69.6274576 69.0692,69.5542373 C68.3602495,69.4810169 67.6533188,69.379322 66.9484079,69.2471186 C63.4783881,68.5922034 60.3820317,67.3779661 57.431101,65.1610169 C50.1295168,74.500678 31.4948238,80.9318644 15.0738337,81.8979661 C13.1206851,82.0098305 11.173596,82.0220339 9.23660594,81.9528814 C7.29557624,81.8857627 5.36666535,81.739322 3.44987327,81.5379661 L3.44179406,81.5379661 L3.42967525,81.5359322 L3.42563564,81.5338983 L3.40341782,81.5298305 L3.40139802,81.5298305 L3.39129901,81.5277966 C3.19335842,81.4891525 3.01157624,81.4444068 2.84191287,81.399661 C2.6702297,81.3528814 2.50864554,81.3020339 2.35514059,81.2471186 C1.57347723,80.9725424 0.616091089,80.4376271 0.502982178,79.5142373 C0.393912871,78.6152542 1.1392198,77.8789831 1.86028911,77.4722034 C3.79525941,76.38 5.5201703,76.9128814 7.60258614,76.9189831" id="Fill-39" fill="#85392F"></path>
                <path d="M78.9153307,47.8775593 C81.6036871,50.7209492 82.4560436,54.6219661 81.8561624,58.4701017 C79.3314099,74.664 64.8413505,68.9650169 68.1497861,74.8612881 C71.0906178,80.1006102 100.208083,69.4938305 101.577509,81.463322 L55.6977069,81.463322 C52.872004,75.9168814 59.3252713,69.963661 61.858103,68.3934915 C66.018895,65.8165424 41.2924792,65.8551864 54.1828554,51.504 C60.5957267,44.3629831 70.9775089,39.4856949 78.9153307,47.8775593" id="Fill-41" fill="#FFFFFF"></path>
                <path d="M79.2675842,47.540339 L79.2776832,47.5505085 L79.2776832,47.5505085 C79.6634653,47.959322 80.0128911,48.3925424 80.3279802,48.8481356 C80.6430693,49.3016949 80.9238218,49.7755932 81.1682178,50.2637288 C82.4245347,52.7715254 82.778,55.7084746 82.3356634,58.5457627 C81.5580396,63.5308475 79.6755842,66.5064407 77.5103564,68.3898305 C75.3451287,70.2711864 72.9052079,71.0542373 71.0045743,71.6644068 L71.0025545,71.6644068 L70.6026337,71.7884746 C70.0350693,71.9633898 69.4432673,72.1464407 68.9948713,72.4027119 C68.2778416,72.8094915 67.9082178,73.4359322 68.5727327,74.6216949 L68.5727327,74.6237288 C69.079703,75.5247458 70.6349505,75.8725424 72.802198,75.9335593 C75.0118614,75.9986441 77.851703,75.7586441 80.8713069,75.5023729 C81.390396,75.459661 81.9943168,75.3966102 82.6628713,75.3254237 C89.0010099,74.6664407 101.148099,73.4033898 102.103465,81.7708475 L102.123663,81.9538983 L101.941881,81.9538983 L55.5025941,81.9538983 L55.401604,81.9538983 L55.3571683,81.8623729 L55.3551485,81.8583051 C54.9713861,81.1179661 54.7330495,80.3633898 54.6199406,79.6108475 C54.5068317,78.8542373 54.5189505,78.0935593 54.6320594,77.3450847 C55.2157822,73.5132203 58.4979604,69.8989831 61.602396,67.9749153 L61.6044158,67.9749153 C61.6690495,67.9342373 61.6831881,67.8915254 61.6569307,67.8467797 L61.6569307,67.8467797 C61.3034653,67.2691525 58.5949109,66.3620339 56.9649307,65.8149153 C56.4094851,65.6277966 55.9732079,65.4854237 55.7914257,65.4040678 L55.7813267,65.3979661 C53.4848119,64.2020339 51.9073465,62.6522034 51.1559802,61.6840678 C50.9661188,61.44 50.8267525,61.2305085 50.7419208,61.0718644 C50.6308317,60.8705085 50.6005347,60.7138983 50.6469901,60.6244068 L50.6530495,60.6101695 L50.6651683,60.5959322 L50.6752673,60.5837288 L50.7863564,60.4474576 L50.9115842,60.5694915 L50.9317822,60.5898305 C53.9473465,63.4738983 57.461802,65.0522034 59.8411287,66.12 C61.2873069,66.7708475 62.3254851,67.2386441 62.622396,67.7227119 C62.8486139,68.0949153 62.7112673,68.440678 62.1134059,68.8128814 L62.1113861,68.8128814 L62.1093663,68.8128814 C61.5963366,69.1322034 61.0631089,69.5125424 60.5339208,69.9437288 C60.0027129,70.3749153 59.4775644,70.8589831 58.9746337,71.3776271 C56.4357426,74.019661 54.5189505,77.680678 56.0014851,80.9715254 L101.006713,80.9715254 C100.384614,77.979661 97.6154653,76.6698305 93.9394257,76.1959322 C90.1341188,75.7057627 85.3532475,76.1084746 80.9500792,76.480678 C77.8173663,76.7450847 74.8684554,76.9952542 72.5315446,76.8894915 C70.1522178,76.7857627 68.4030693,76.3057627 67.7284554,75.1016949 C66.6902772,73.2528814 67.304297,72.2644068 68.457604,71.6074576 C69.0817228,71.2515254 69.8613663,71.0033898 70.6127327,70.7613559 L70.7096832,70.7308475 C72.5093267,70.1532203 74.8179604,69.4128814 76.8478614,67.6515254 C78.8777624,65.8861017 80.6450891,63.0915254 81.3762574,58.3972881 C81.8791881,55.1674576 81.2247723,52.2976271 79.7927327,49.9932203 C78.8434257,48.4677966 77.5527723,47.1905085 76.0318614,46.2183051 C74.5069109,45.2481356 72.7496832,44.5810169 70.8692475,44.2861017 C67.4497228,43.7450847 63.6201782,44.420339 60.0410891,46.6759322 L60.0350297,46.68 L60.0350297,46.68 L60.0309901,46.6820339 L59.8552673,46.4074576 L59.8613267,46.4033898 L59.8633465,46.4033898 C61.113604,45.5735593 62.3194257,44.920678 63.4747525,44.420339 C64.6341188,43.92 65.7490495,43.5722034 66.8134851,43.3566102 C72.3073465,42.2461017 76.5166139,44.6338983 79.2675842,47.540339" id="Fill-43" fill="#85392F"></path>
            </g>
        </g>
    </g>
</svg>
