<?xml version="1.0" encoding="UTF-8"?>
<svg width="367px" height="62px" viewBox="0 0 367 62" version="1.1" xmlns="http://www.w3.org/2000/svg" xmlns:xlink="http://www.w3.org/1999/xlink">
    <!-- Generator: Sketch 49 (51002) - http://www.bohemiancoding.com/sketch -->
    <title>title</title>
    <desc>Created with Sketch.</desc>
    <defs></defs>
    <g id="Page-1" stroke="none" stroke-width="1" fill="none" fill-rule="evenodd">
        <g id="title" fill-rule="nonzero">
            <path d="M77.2914,13.5814 C72.1364,24.7664 68.2124,31.5844 64.8274,36.9474 C67.4434,40.1644 69.4434,42.2334 74.0594,46.9064 C67.5204,54.1074 62.2884,58.0914 58.3644,60.6194 C53.1324,55.9464 50.5934,51.9624 49.0554,49.2044 L48.8244,49.2814 L48.8244,55.9464 C41.9004,56.2524 35.3604,56.2524 29.2824,55.9464 C28.7434,50.5074 28.0514,42.3094 28.0514,32.5804 C28.0514,21.7784 28.7434,12.4324 30.8204,1.8604 C34.0524,1.7074 40.3614,1.6304 51.5934,3.0094 C49.5934,12.5854 48.8244,19.7874 48.5164,24.2304 L48.3624,26.4514 L48.5164,26.3754 C50.9784,22.3144 55.0564,15.3434 61.7504,1.4004 C65.6734,3.3164 70.6744,6.5334 77.2914,13.5814" id="Fill-1" fill="#228ACC"></path>
            <path d="M70.0966,27.2849 C72.1136,23.5699 74.3486,19.1409 76.8856,13.6469 C73.6556,10.2229 70.8166,7.7209 68.3056,5.8389 C65.8956,4.0309 63.7806,2.7929 61.9076,1.8599 C58.6226,8.6919 55.9766,13.8269 53.8466,17.7559 C51.6866,21.7419 50.0456,24.5109 48.8076,26.5509 L48.7556,26.6379 L48.6686,26.6809 L48.5146,26.7579 L47.9806,27.0239 L48.0216,26.4289 L48.1756,24.2069 C48.3296,21.9829 48.5996,19.0649 49.0826,15.4989 C49.5516,12.0289 50.2236,7.9489 51.1846,3.3039 C45.7466,2.6459 41.4896,2.3309 38.1936,2.2009 C35.0046,2.0749 32.7066,2.1189 31.1056,2.1889 C30.0976,7.3629 29.4226,12.2489 28.9976,17.1639 C28.5656,22.1609 28.3926,27.1889 28.3926,32.5809 L28.3916,32.5809 C28.3916,37.4299 28.5656,41.9069 28.8056,45.8519 C29.0376,49.6579 29.3316,52.9569 29.5936,55.6199 C33.8696,55.8279 38.3706,55.8859 43.0696,55.7919 C44.0006,55.7729 44.9456,55.7479 45.9036,55.7169 C46.7496,55.6899 47.6096,55.6569 48.4826,55.6189 L48.4826,49.2809 L48.4826,49.0359 L48.7176,48.9579 L48.9486,48.8819 L49.2156,48.7929 L49.3526,49.0389 C50.1156,50.4049 51.1266,52.0769 52.5946,53.9859 C54.0286,55.8489 55.8986,57.9389 58.3986,60.1909 C60.3006,58.9549 62.5046,57.3739 65.0106,55.2549 C67.5576,53.1019 70.4176,50.3899 73.5906,46.9159 C71.3946,44.6929 69.8006,43.0659 68.4436,41.6139 C67.0366,40.1069 65.8776,38.7799 64.5626,37.1619 L64.4086,36.9719 L64.5386,36.7649 C66.2296,34.0869 68.0546,31.0469 70.0966,27.2849 Z M77.6016,13.7239 C75.0226,19.3179 72.7486,23.8269 70.6946,27.6109 C68.6936,31.2969 66.9046,34.2879 65.2466,36.9209 C66.4846,38.4369 67.5976,39.7079 68.9436,41.1489 C70.3486,42.6529 71.9996,44.3359 74.3026,46.6669 L74.5296,46.8969 L74.3126,47.1359 C71.0326,50.7479 68.0786,53.5549 65.4516,55.7759 C62.8226,57.9999 60.5216,59.6359 58.5496,60.9069 L58.3326,61.0469 L58.1376,60.8739 C55.5026,58.5199 53.5466,56.3399 52.0546,54.4019 C50.8096,52.7839 49.8886,51.3329 49.1666,50.0889 L49.1666,55.9469 L49.1666,56.2729 L48.8396,56.2869 L48.8126,56.2889 C47.8516,56.3309 46.8876,56.3679 45.9246,56.3989 C44.9756,56.4289 44.0286,56.4539 43.0836,56.4729 C38.2546,56.5689 33.6396,56.5079 29.2666,56.2869 L28.9716,56.2719 L28.9426,55.9799 C28.6726,53.2529 28.3646,49.8369 28.1236,45.8919 C27.8836,41.9469 27.7106,37.4599 27.7106,32.5809 L27.7086,32.5809 C27.7086,27.1709 27.8826,22.1239 28.3166,17.1049 C28.7496,12.0869 29.4446,7.0949 30.4856,1.7949 L30.5376,1.5319 L30.8046,1.5199 C32.4266,1.4429 34.8216,1.3849 38.2206,1.5199 C41.6196,1.6539 46.0166,1.9799 51.6356,2.6699 L52.0036,2.7149 L51.9276,3.0789 C50.9296,7.8589 50.2386,12.0449 49.7586,15.5899 C49.2796,19.1289 49.0106,22.0349 48.8576,24.2529 L48.7866,25.2679 C49.9356,23.3529 51.3946,20.8499 53.2456,17.4319 C55.4126,13.4349 58.1046,8.2079 61.4426,1.2529 L61.5916,0.9429 L61.8996,1.0929 C63.8746,2.0579 66.1236,3.3509 68.7156,5.2939 C71.2986,7.2299 74.2186,9.8099 77.5396,13.3479 L77.6976,13.5159 L77.6016,13.7239 Z" id="Fill-3" fill="#103F5D"></path>
            <polygon id="Fill-5" fill="#FFFFFF" points="63.2373 25.8624 63.8303 25.9304 64.2063 26.0914"></polygon>
            <path d="M104.8052,37.1166 C108.7852,37.1166 111.7522,36.9726 115.5152,36.3956 C115.3712,38.6296 115.0812,44.8996 116.3112,54.2666 C110.3042,55.0596 105.1672,55.2746 98.1472,55.2746 C92.2122,55.2746 86.6412,55.0596 81.5752,54.6986 C81.3582,53.1856 79.5492,39.2066 79.5492,26.1636 C79.5492,16.4356 80.5622,9.4456 81.2852,5.1226 C86.7852,4.4016 90.4042,4.3296 95.7592,4.3296 C103.4302,4.3296 108.4232,4.4016 116.0222,5.4826 C115.4422,9.8056 115.2982,15.5706 115.2982,18.3816 L115.2982,21.3356 C114.2852,21.2636 110.8832,21.0476 108.3512,21.0476 C104.8772,21.0476 101.4762,21.4076 99.6672,21.6246 C99.7392,22.6326 99.9562,26.9566 99.9562,29.0466 C99.9562,31.2076 99.7392,35.1706 99.6672,37.1166 L104.8052,37.1166 Z M112.4032,22.5606 C113.1272,24.1456 114.0682,26.3796 115.0092,29.9826 C110.8832,32.1446 106.7582,33.8016 102.9232,35.0266 C101.9822,32.8646 101.7652,31.9286 100.4632,27.8206 C104.2262,25.5156 108.2062,23.7856 112.4032,22.5606 Z" id="Fill-7" fill="#228ACC"></path>
            <path d="M110.2617,37.2932 C108.5367,37.4022 106.7947,37.4382 104.8047,37.4382 L104.8047,37.4372 L99.6667,37.4372 L99.3347,37.4372 L99.3467,37.1052 C99.3667,36.5412 99.3997,35.8362 99.4337,35.0572 C99.5237,33.0762 99.6347,30.6172 99.6357,29.0792 L99.6347,29.0792 L99.6347,29.0462 C99.6347,27.5452 99.5247,24.9182 99.4347,23.1792 C99.4177,22.8442 99.4007,22.5362 99.3857,22.2722 C99.3727,22.0312 99.3587,21.8222 99.3477,21.6622 L99.3467,21.6472 L99.3247,21.3412 L99.6297,21.3052 C100.5357,21.1962 101.8427,21.0522 103.3607,20.9342 C104.8807,20.8172 106.6087,20.7262 108.3507,20.7262 C110.1607,20.7262 112.4287,20.8372 113.9467,20.9272 C114.2527,20.9452 114.5177,20.9622 114.7377,20.9762 L114.9777,20.9902 L114.9777,18.3812 L114.9757,18.3812 C114.9757,16.3612 115.0517,12.8152 115.3077,9.3662 C115.3577,8.7102 115.4147,8.0432 115.4807,7.3742 C115.5357,6.8222 115.5967,6.2812 115.6637,5.7572 C112.0127,5.2462 108.9597,4.9692 105.9027,4.8212 C102.7697,4.6702 99.6007,4.6522 95.7597,4.6522 C93.0747,4.6522 90.8297,4.6702 88.5917,4.7762 C86.4027,4.8812 84.1967,5.0712 81.5637,5.4102 C81.2097,7.5382 80.7947,10.2832 80.4647,13.6472 C80.1227,17.1352 79.8707,21.3032 79.8707,26.1642 C79.8707,35.5232 80.8027,45.3622 81.4087,50.7202 C81.5227,51.7362 81.6297,52.6182 81.7157,53.3052 C81.7757,53.7852 81.8247,54.1492 81.8577,54.3962 C83.9027,54.5392 86.0177,54.6582 88.1917,54.7492 C88.6417,54.7682 89.0887,54.7852 89.5327,54.8012 C92.2957,54.9002 95.1637,54.9542 98.1167,54.9542 L98.1167,54.9532 L98.1467,54.9532 L98.1467,54.9542 C101.6457,54.9542 104.6797,54.9002 107.5927,54.7482 C110.3957,54.6012 113.0807,54.3612 115.9527,53.9902 C115.3667,49.4342 115.1397,45.6212 115.0777,42.6622 C115.0207,39.9542 115.1017,37.9652 115.1717,36.7722 C113.4397,37.0272 111.8637,37.1922 110.2617,37.2932 Z M113.3227,25.6252 C112.9277,24.5482 112.5567,23.6782 112.2267,22.9462 C110.2367,23.5392 108.2927,24.2482 106.3987,25.0792 C104.4987,25.9142 102.6477,26.8722 100.8457,27.9632 C101.0837,28.7182 101.3027,29.4192 101.4927,30.0302 C102.1617,32.1732 102.4607,33.1272 103.1027,34.6322 C105.7677,33.7702 108.5707,32.6972 111.4137,31.3922 C111.9857,31.1292 112.5587,30.8572 113.1327,30.5752 C113.6327,30.3302 114.1337,30.0772 114.6347,29.8172 C114.1887,28.1422 113.7437,26.7712 113.3227,25.6252 Z M112.6947,22.4272 C113.0607,23.2302 113.4817,24.1952 113.9257,25.4042 C114.3717,26.6172 114.8447,28.0862 115.3197,29.9022 L115.3827,30.1442 L115.1637,30.2642 L115.1597,30.2662 L115.1537,30.2692 C114.5727,30.5732 113.9927,30.8672 113.4147,31.1512 C112.8347,31.4352 112.2567,31.7102 111.6797,31.9752 C108.7157,33.3362 105.7927,34.4462 103.0197,35.3322 L102.7447,35.4202 L102.6297,35.1552 C101.8877,33.4512 101.5927,32.5062 100.8797,30.2212 C100.7127,29.6852 100.5207,29.0692 100.2707,28.2792 C100.2757,28.5572 100.2777,28.8162 100.2777,29.0462 L100.2777,29.0792 L100.2767,29.0792 C100.2747,30.6462 100.1647,33.1042 100.0747,35.0852 C100.0467,35.7232 100.0197,36.3122 100.0007,36.7962 L104.8047,36.7962 L104.8047,36.7952 C106.7947,36.7952 108.5267,36.7592 110.2217,36.6522 C111.9187,36.5452 113.5927,36.3652 115.4677,36.0782 L115.8617,36.0172 L115.8357,36.4162 C115.7637,37.5302 115.6557,39.6502 115.7177,42.6502 C115.7817,45.6572 116.0157,49.5542 116.6297,54.2252 L116.6707,54.5422 L116.3527,54.5842 C113.3387,54.9822 110.5437,55.2352 107.6247,55.3892 C104.7127,55.5412 101.6677,55.5952 98.1467,55.5952 L98.1467,55.5972 L98.1167,55.5972 L98.1167,55.5952 C95.1477,55.5952 92.2727,55.5412 89.5097,55.4422 C89.0537,55.4262 88.6047,55.4082 88.1657,55.3902 C85.8677,55.2942 83.6597,55.1692 81.5527,55.0192 L81.2937,55.0012 L81.2567,54.7442 L81.2567,54.7362 C81.2237,54.5052 81.1587,54.0352 81.0777,53.3832 C80.9957,52.7342 80.8907,51.8652 80.7697,50.7902 C80.1627,45.4152 79.2267,35.5452 79.2267,26.1642 C79.2267,21.2972 79.4817,17.1052 79.8267,13.5862 C80.1717,10.0672 80.6067,7.2332 80.9687,5.0702 L81.0087,4.8352 L81.2437,4.8052 C84.0057,4.4432 86.2937,4.2432 88.5617,4.1352 C90.8457,4.0262 93.0887,4.0082 95.7597,4.0082 C99.5877,4.0082 102.7527,4.0262 105.9327,4.1802 C109.1017,4.3342 112.2597,4.6232 116.0667,5.1652 L116.3827,5.2102 L116.3397,5.5252 L116.3357,5.5582 C116.2557,6.1572 116.1837,6.7882 116.1187,7.4362 C116.0567,8.0662 115.9997,8.7312 115.9487,9.4142 C115.6937,12.8362 115.6197,16.3672 115.6197,18.3812 L115.6187,18.3812 L115.6187,21.3352 L115.6187,21.6792 L115.2767,21.6562 L115.2607,21.6552 C115.1087,21.6442 114.9137,21.6302 114.6977,21.6172 C114.4597,21.6012 114.1917,21.5842 113.9087,21.5682 C112.4097,21.4792 110.1647,21.3692 108.3507,21.3692 C106.6197,21.3692 104.9097,21.4592 103.4087,21.5752 C102.0667,21.6792 100.8877,21.8042 100.0077,21.9072 L100.0267,22.2372 C100.0417,22.4902 100.0587,22.7982 100.0757,23.1472 C100.1417,24.4162 100.2177,26.1472 100.2547,27.5722 L100.2957,27.5472 C102.1887,26.3872 104.1377,25.3712 106.1417,24.4912 C108.1437,23.6132 110.2007,22.8692 112.3137,22.2522 L112.5797,22.1752 L112.6947,22.4272 Z" id="Fill-9" fill="#103F5D"></path>
            <path d="M136.8656,3.6813 C140.5566,3.6813 142.4376,3.8253 144.2466,4.1133 C143.2346,10.2383 142.6546,13.3373 142.7266,18.8853 C144.8986,18.7413 147.2866,18.6693 149.7466,18.7413 C149.8196,14.7783 150.5436,8.9413 151.9906,4.5463 C156.3326,4.1863 158.6476,3.9693 160.6746,3.9693 C164.5106,3.9693 167.9836,4.2573 170.5166,4.6903 C168.9236,15.6433 168.7066,18.9583 168.7066,27.2443 C168.7066,35.8193 168.9966,42.4483 170.6616,54.4823 C168.0556,54.6263 163.4246,54.8423 159.8056,54.8423 C156.3326,54.8423 154.0166,54.6263 151.6286,54.2663 C150.1816,44.0343 149.8196,36.9003 149.6736,32.4333 C147.5756,32.5053 145.4046,32.5053 143.2336,32.4333 C143.5226,41.1523 144.1746,48.3573 144.8256,53.8343 C140.4116,54.4823 133.5366,55.1313 124.9966,54.6993 C123.4056,45.0433 122.3196,32.8653 122.3196,22.5603 C122.3196,16.0753 122.6096,10.3113 123.3326,4.3293 C126.5896,4.0413 131.1486,3.6813 136.8656,3.6813" id="Fill-11" fill="#228ACC"></path>
            <path d="M141.243,4.1098 C140.099,4.0388 138.712,4.0028 136.866,4.0028 C134.003,4.0028 131.442,4.0928 129.194,4.2178 C127.074,4.3358 125.204,4.4888 123.621,4.6278 C123.276,7.5268 123.033,10.3728 122.875,13.2728 C122.714,16.2558 122.641,19.3138 122.641,22.5608 C122.641,29.9668 123.203,38.3398 124.11,46.0448 C124.287,47.5528 124.477,49.0268 124.676,50.4528 C124.865,51.8058 125.065,53.1208 125.272,54.3908 C129.425,54.5918 133.18,54.5358 136.441,54.3518 C139.61,54.1718 142.317,53.8688 144.47,53.5608 C144.157,50.8908 143.844,47.8198 143.574,44.3748 C143.294,40.8058 143.059,36.8208 142.913,32.4428 L142.902,32.1008 L143.244,32.1128 C144.794,32.1638 146.343,32.1778 147.862,32.1568 C148.154,32.1518 148.45,32.1468 148.75,32.1388 C149.04,32.1318 149.334,32.1238 149.632,32.1138 L149.664,32.1128 L149.984,32.1018 L149.994,32.4228 C150.066,34.6438 150.193,37.5338 150.483,41.1628 C150.768,44.7268 151.211,48.9838 151.913,53.9838 C153.02,54.1458 154.119,54.2778 155.334,54.3698 C156.634,54.4678 158.074,54.5208 159.806,54.5208 C162.413,54.5208 165.522,54.4108 168.024,54.2948 C168.496,54.2738 168.965,54.2498 169.417,54.2278 C169.722,54.2118 170.017,54.1958 170.296,54.1808 C169.491,48.3208 169.015,43.7458 168.739,39.5868 C168.458,35.3378 168.385,31.5328 168.385,27.2448 C168.385,23.0968 168.44,20.1908 168.694,16.9438 C168.943,13.7658 169.384,10.2658 170.154,4.9558 C169.171,4.7968 168.063,4.6598 166.862,4.5528 C166.651,4.5348 166.384,4.5128 166.066,4.4888 C164.405,4.3628 162.587,4.2898 160.689,4.2898 L160.689,4.2918 L160.674,4.2918 C158.9,4.2918 156.895,4.4588 153.481,4.7448 L152.23,4.8488 C151.24,7.9348 150.6,11.6978 150.288,15.0088 C150.226,15.6628 150.177,16.3068 150.14,16.9308 C150.103,17.5548 150.079,18.1438 150.068,18.6878 L150.067,18.7468 L150.061,19.0708 L149.738,19.0618 C147.987,19.0108 146.271,19.0328 144.644,19.1018 C144.337,19.1148 144.021,19.1308 143.702,19.1478 C143.4,19.1648 143.092,19.1838 142.78,19.2038 L142.747,19.2058 L142.411,19.2288 L142.407,18.8898 C142.338,13.6508 142.846,10.5928 143.749,5.1558 L143.877,4.3808 C143.084,4.2638 142.255,4.1728 141.243,4.1098 M136.866,3.3598 C138.71,3.3598 140.109,3.3958 141.28,3.4688 C142.447,3.5418 143.38,3.6508 144.297,3.7968 L144.616,3.8478 L144.563,4.1648 L144.382,5.2588 C143.505,10.5438 143.003,13.5678 143.044,18.5428 C143.246,18.5308 143.453,18.5188 143.667,18.5078 L143.668,18.5078 C143.971,18.4908 144.287,18.4748 144.618,18.4608 C146.157,18.3958 147.777,18.3718 149.434,18.4118 C149.447,17.9228 149.468,17.4148 149.499,16.8928 C149.535,16.2768 149.586,15.6258 149.65,14.9488 C149.973,11.5208 150.643,7.6118 151.685,4.4458 L151.752,4.2438 L151.964,4.2258 L153.428,4.1038 C156.861,3.8168 158.877,3.6478 160.674,3.6478 L160.689,3.6478 L160.689,3.6488 C162.62,3.6488 164.453,3.7218 166.114,3.8478 C166.338,3.8648 166.604,3.8868 166.917,3.9148 C168.278,4.0358 169.51,4.1928 170.57,4.3738 L170.879,4.4268 L170.834,4.7358 C170.04,10.2028 169.588,13.7638 169.335,16.9908 C169.083,20.2108 169.029,23.1068 169.029,27.2448 C169.029,31.5308 169.101,35.3288 169.38,39.5468 C169.66,43.7728 170.148,48.4318 170.979,54.4388 L171.027,54.7838 L170.679,54.8028 L170.659,54.8048 C170.301,54.8238 169.895,54.8458 169.45,54.8688 C169.028,54.8898 168.561,54.9128 168.052,54.9358 C165.521,55.0528 162.392,55.1648 159.806,55.1648 C158.064,55.1648 156.609,55.1098 155.286,55.0108 C153.964,54.9108 152.781,54.7658 151.581,54.5848 L151.345,54.5488 L151.311,54.3108 C150.585,49.1818 150.132,44.8348 149.842,41.2138 C149.567,37.7708 149.439,34.9628 149.365,32.7628 C149.168,32.7688 148.968,32.7758 148.765,32.7798 C148.473,32.7868 148.174,32.7928 147.87,32.7978 C146.45,32.8178 145.008,32.8058 143.566,32.7638 C143.711,36.9718 143.941,40.8358 144.215,44.3238 C144.495,47.8958 144.82,51.0628 145.145,53.7968 L145.182,54.1068 L144.872,54.1518 C142.66,54.4768 139.828,54.8028 136.476,54.9918 C133.129,55.1818 129.264,55.2358 124.982,55.0188 L124.724,55.0058 L124.68,54.7518 L124.679,54.7418 L124.679,54.7398 C124.455,53.3828 124.242,51.9788 124.041,50.5408 C123.838,49.0908 123.647,47.6118 123.471,46.1178 C122.561,38.3868 121.998,29.9858 121.998,22.5608 C121.998,19.3228 122.071,16.2558 122.234,13.2398 C122.398,10.2278 122.652,7.2838 123.014,4.2918 L123.045,4.0328 L123.305,4.0088 C124.925,3.8668 126.873,3.7048 129.159,3.5768 C131.434,3.4508 134.011,3.3598 136.866,3.3598" id="Fill-13" fill="#103F5D"></path>
            <path d="M195.3397,23.1369 C195.0497,25.8029 195.0497,27.4609 195.0497,30.4149 C195.0497,38.6299 195.2677,43.0259 196.4257,54.4109 C190.0577,54.9869 183.5447,55.0599 176.5247,54.2669 C175.6557,45.6919 175.2947,37.2609 175.2947,29.9109 C175.2947,20.9039 175.8737,12.9769 177.3937,4.5459 C179.2027,4.4739 185.8597,4.1139 190.0577,4.1139 C193.9647,4.1139 201.9977,4.3299 209.7407,5.1229 C208.8727,11.2479 208.7277,15.1389 208.7277,18.3809 L208.7277,23.0649 C200.6947,23.1369 201.2017,22.8489 195.3397,23.1369" id="Fill-15" fill="#228ACC"></path>
            <path d="M194.766,26.6579 C194.802,25.5299 194.875,24.4409 195.02,23.1029 L195.05,22.8299 L195.325,22.8169 C198.684,22.6519 199.959,22.6759 201.944,22.7129 C203.375,22.7389 205.176,22.7729 208.406,22.7469 L208.406,18.3809 C208.406,16.7589 208.442,14.9709 208.588,12.8119 C208.728,10.7399 208.969,8.3319 209.376,5.4079 C206.255,5.0959 203.097,4.8759 200.19,4.7249 C199.592,4.6939 199.017,4.6669 198.464,4.6419 C195.004,4.4889 192.027,4.4339 190.077,4.4339 L190.077,4.4349 L190.058,4.4349 C186.692,4.4349 181.789,4.6649 179.031,4.7929 C178.482,4.8189 178.019,4.8409 177.663,4.8559 C176.932,8.9649 176.422,12.9639 176.095,17.0379 C175.76,21.1989 175.615,25.4239 175.615,29.9109 L175.616,29.9109 C175.616,35.1929 175.803,41.0299 176.23,47.0719 C176.312,48.2359 176.405,49.4209 176.508,50.6249 C176.606,51.7679 176.709,52.8859 176.818,53.9759 C180.228,54.3509 183.515,54.5229 186.72,54.5319 C189.899,54.5399 193.004,54.3889 196.074,54.1199 C195.514,48.5929 195.179,44.7249 194.983,41.2419 C194.783,37.6749 194.728,34.5189 194.728,30.4149 C194.728,28.9549 194.728,27.8139 194.766,26.6579 M195.629,23.4439 C195.504,24.6479 195.44,25.6499 195.407,26.6779 C195.372,27.7549 195.372,28.9219 195.372,30.4149 C195.372,34.5259 195.426,37.6749 195.624,41.2069 C195.823,44.7529 196.167,48.6949 196.745,54.3799 L196.777,54.7009 L196.454,54.7299 C193.262,55.0189 190.031,55.1809 186.72,55.1729 C183.402,55.1639 180.007,54.9829 176.489,54.5859 L176.231,54.5559 L176.205,54.2979 L176.203,54.2719 C176.078,53.0359 175.966,51.8369 175.867,50.6779 C175.766,49.4989 175.673,48.3109 175.589,47.1169 C175.16,41.0509 174.973,35.1979 174.973,29.9109 L174.974,29.9109 C174.974,25.3909 175.119,21.1489 175.454,16.9879 C175.789,12.8229 176.315,8.7229 177.078,4.4899 L177.124,4.2359 L177.381,4.2259 L177.409,4.2249 C177.763,4.2109 178.318,4.1839 179.003,4.1519 C181.781,4.0229 186.719,3.7919 190.058,3.7919 L190.077,3.7919 L190.077,3.7929 C192.041,3.7939 195.032,3.8479 198.492,4.0009 C199.067,4.0259 199.646,4.0539 200.223,4.0839 C203.241,4.2409 206.532,4.4719 209.773,4.8039 L210.105,4.8379 L210.059,5.1669 C209.626,8.2189 209.373,10.7159 209.229,12.8539 C209.085,14.9829 209.049,16.7619 209.049,18.3809 L209.049,23.0649 L209.049,23.3829 L208.73,23.3859 C205.289,23.4159 203.413,23.3809 201.934,23.3539 C200.021,23.3179 198.774,23.2939 195.629,23.4439" id="Fill-17" fill="#103F5D"></path>
            <path d="M228.4124,0.9433 C230.8734,5.4823 234.2024,11.3913 238.7604,18.0213 C241.9454,13.0483 244.1884,8.7253 248.1684,0.5103 C256.9974,4.8343 261.4124,7.4283 265.1744,10.1673 C258.9514,24.2183 244.0434,46.9883 232.8984,60.8963 C226.0244,57.0773 220.5244,53.0423 216.3274,49.5833 C221.8994,42.8813 225.0104,38.1973 227.0374,34.7393 C218.5704,22.9213 214.3014,14.6343 211.4064,8.3653 C215.0974,6.2753 219.8724,3.8973 228.4124,0.9433" id="Fill-19" fill="#228ACC"></path>
            <path d="M232.5243,8.8614 C230.8633,6.0684 229.4583,3.5414 228.2593,1.3354 C224.1293,2.7714 220.8873,4.0724 218.2233,5.2714 C215.6343,6.4364 213.5973,7.5014 211.8213,8.4994 C213.2433,11.5634 214.9983,15.1094 217.4113,19.3124 C219.8933,23.6344 223.0723,28.6524 227.2993,34.5514 L227.4193,34.7204 L227.3143,34.9014 C226.2983,36.6344 225.0093,38.6764 223.2733,41.1294 C221.5833,43.5174 219.4713,46.2904 216.7793,49.5394 C218.8093,51.2024 221.1433,52.9984 223.7933,54.8404 C226.4843,56.7124 229.4903,58.6244 232.8173,60.4834 C240.8033,50.4874 250.6783,36.0134 257.8983,23.4784 C259.3013,21.0414 260.6133,18.6624 261.7983,16.3874 C262.9273,14.2194 263.9293,12.1664 264.7753,10.2734 C262.9663,8.9674 260.9853,7.6834 258.4123,6.2124 C255.7913,4.7134 252.5713,3.0294 248.3163,0.9404 C246.3943,4.9044 244.8773,7.9574 243.4483,10.6324 C241.9863,13.3744 240.6253,15.7054 239.0303,18.1944 L238.7703,18.6014 L238.4963,18.2034 C236.2093,14.8774 234.2343,11.7374 232.5233,8.8624 L232.5243,8.8614 Z M228.6953,0.7914 C229.9293,3.0684 231.3783,5.6834 233.0743,8.5354 L233.0763,8.5354 C234.7153,11.2904 236.5943,14.2824 238.7503,17.4394 C240.2293,15.1084 241.5133,12.8984 242.8833,10.3314 C244.3333,7.6134 245.8883,4.4804 247.8793,0.3714 L248.0203,0.0814 L248.3093,0.2234 C252.7383,2.3924 256.0553,4.1244 258.7313,5.6544 C261.4133,7.1884 263.4673,8.5284 265.3633,9.9084 L265.5703,10.0584 L265.4703,10.2924 L265.4693,10.2954 L265.4673,10.2994 C264.5923,12.2754 263.5473,14.4204 262.3683,16.6844 C261.1983,18.9304 259.8813,21.3184 258.4533,23.7974 C251.1643,36.4514 241.1793,51.0744 233.1493,61.0974 L232.9803,61.3074 L232.7433,61.1764 C229.2913,59.2584 226.1883,57.2884 223.4263,55.3684 C220.6663,53.4494 218.2343,51.5694 216.1243,49.8304 L215.8753,49.6254 L216.0813,49.3784 C218.8623,46.0324 221.0283,43.1934 222.7503,40.7594 C224.4103,38.4154 225.6613,36.4424 226.6553,34.7564 C222.4763,28.9124 219.3223,23.9314 216.8533,19.6314 C214.3623,15.2914 212.5663,11.6434 211.1153,8.4994 L210.9913,8.2314 L211.2483,8.0864 C213.1033,7.0364 215.2293,5.9134 217.9593,4.6854 C220.6853,3.4594 224.0223,2.1234 228.3083,0.6404 L228.5653,0.5514 L228.6953,0.7914 Z" id="Fill-21" fill="#103F5D"></path>
            <path d="M279.7943,3.8252 C288.4793,3.8252 299.4793,5.4112 306.3533,13.5542 C310.4063,18.3092 313.3733,26.0912 309.6823,34.4502 C306.4263,41.8722 298.5383,47.6372 288.9133,48.3572 C289.1303,50.3032 289.3473,52.3932 289.6373,54.6992 C278.8543,55.7792 271.1113,54.5552 269.4473,54.2662 C268.7233,47.4212 268.1433,39.3502 268.1433,29.6942 C268.1433,21.6962 268.3603,13.9862 271.0393,4.4022 C273.4993,4.0412 276.1763,3.8252 279.7943,3.8252 M287.2123,35.0932 C287.2123,37.5942 287.3523,40.2352 287.4933,42.7372 C292.9363,40.6522 293.6343,36.3432 293.6343,33.9802 C293.6343,28.1422 289.1673,26.3352 287.4933,25.7792 C287.3523,28.8372 287.2123,32.0342 287.2123,35.0932" id="Fill-23" fill="#228ACC"></path>
            <path d="M293.6613,5.944 C289.0023,4.54 284.1113,4.147 279.7943,4.147 C277.9883,4.147 276.4213,4.201 275.0043,4.299 C273.6653,4.392 272.4523,4.525 271.2913,4.69 C269.9933,9.383 269.2883,13.624 268.9063,17.673 C268.5193,21.774 268.4653,25.697 268.4653,29.695 C268.4653,34.526 268.6103,38.951 268.8443,43.017 C269.0733,46.995 269.3893,50.64 269.7403,53.991 C270.7283,54.155 272.9593,54.487 276.1413,54.676 C279.5493,54.878 284.0473,54.916 289.2773,54.412 C289.0823,52.833 288.9153,51.315 288.7573,49.876 C288.7063,49.402 288.6543,48.936 288.5943,48.393 L288.5573,48.062 L288.8893,48.037 C295.7303,47.525 301.6803,44.436 305.6763,40.015 C306.4493,39.159 307.1523,38.249 307.7753,37.295 L307.7753,37.296 C308.3963,36.346 308.9343,35.355 309.3833,34.334 L309.3883,34.322 L309.3883,34.321 C312.0013,28.403 311.2213,22.778 309.0923,18.347 C308.6803,17.489 308.2133,16.67 307.7083,15.9 C307.2053,15.132 306.6683,14.418 306.1113,13.764 L306.1083,13.761 C302.7173,9.744 298.3013,7.342 293.6613,5.944 M279.7943,3.504 C284.1613,3.504 289.1143,3.903 293.8443,5.328 C298.5933,6.759 303.1163,9.221 306.5983,13.346 L306.5993,13.348 C307.1763,14.025 307.7313,14.762 308.2463,15.549 C308.7603,16.333 309.2403,17.176 309.6703,18.07 C311.8703,22.65 312.6763,28.464 309.9763,34.58 L309.9753,34.58 L309.9713,34.59 C309.5083,35.645 308.9523,36.667 308.3133,37.646 L308.3133,37.647 C307.6763,38.621 306.9523,39.558 306.1513,40.444 C302.1153,44.911 296.1393,48.052 289.2683,48.651 L289.3963,49.809 C289.5603,51.306 289.7343,52.895 289.9563,54.66 L289.9973,54.985 L289.6683,55.018 C284.2563,55.56 279.6083,55.524 276.1033,55.317 C272.5933,55.109 270.2293,54.728 269.3933,54.583 L269.1523,54.542 L269.1273,54.299 C268.7653,50.872 268.4393,47.137 268.2033,43.052 C267.9673,38.958 267.8223,34.519 267.8223,29.695 C267.8223,25.694 267.8763,21.762 268.2673,17.613 C268.6583,13.47 269.3853,9.128 270.7303,4.317 L270.7863,4.114 L270.9923,4.084 C272.2293,3.903 273.5213,3.758 274.9613,3.658 C276.4023,3.558 277.9843,3.504 279.7943,3.504 M286.9793,38.927 C286.9263,37.623 286.8913,36.329 286.8913,35.093 C286.8913,33.584 286.9263,32.012 286.9803,30.426 C287.0333,28.849 287.1023,27.289 287.1733,25.765 L287.1923,25.342 L287.5943,25.475 C288.4563,25.762 290.0403,26.371 291.4123,27.665 C292.7933,28.969 293.9563,30.955 293.9563,33.98 C293.9563,35.198 293.7753,36.919 292.8893,38.611 C292.0023,40.305 290.4143,41.962 287.6083,43.037 L287.1973,43.195 L287.1733,42.755 C287.1033,41.511 287.0333,40.229 286.9793,38.927 M287.5343,35.093 C287.5343,36.357 287.5693,37.636 287.6203,38.902 C287.6663,40.021 287.7263,41.157 287.7883,42.272 C290.1703,41.264 291.5423,39.803 292.3213,38.315 C293.1443,36.742 293.3133,35.126 293.3133,33.98 C293.3133,31.168 292.2423,29.332 290.9723,28.133 C289.8813,27.104 288.6393,26.535 287.7943,26.223 C287.7293,27.62 287.6673,29.04 287.6213,30.446 C287.5693,31.987 287.5343,33.543 287.5343,35.093" id="Fill-25" fill="#103F5D"></path>
            <path d="M329.4402,0.9433 C331.9012,5.4823 335.2292,11.3913 339.7892,18.0213 C342.9732,13.0483 345.2172,8.7253 349.1962,0.5103 C358.0262,4.8343 362.4402,7.4283 366.2042,10.1673 C359.9802,24.2183 345.0712,46.9883 333.9282,60.8963 C327.0532,57.0773 321.5522,53.0423 317.3562,49.5833 C322.9272,42.8813 326.0392,38.1973 328.0652,34.7393 C319.5992,22.9213 315.3292,14.6343 312.4342,8.3653 C316.1252,6.2753 320.9012,3.8973 329.4402,0.9433" id="Fill-27" fill="#228ACC"></path>
            <path d="M333.5527,8.862 C331.8907,6.069 330.4857,3.542 329.2877,1.335 C325.1577,2.772 321.9157,4.072 319.2517,5.271 C316.6627,6.436 314.6247,7.502 312.8497,8.499 C314.2707,11.564 316.0267,15.11 318.4387,19.312 C320.9217,23.635 324.0997,28.652 328.3267,34.552 L328.4477,34.72 L328.3417,34.901 C327.3267,36.635 326.0377,38.677 324.3017,41.13 C322.6117,43.518 320.4997,46.29 317.8077,49.539 C319.8377,51.202 322.1717,52.998 324.8217,54.84 C327.5127,56.712 330.5187,58.624 333.8457,60.483 C341.8317,50.487 351.7077,36.013 358.9267,23.478 C360.3307,21.041 361.6417,18.662 362.8267,16.387 C363.9557,14.22 364.9587,12.167 365.8037,10.274 C363.9897,8.965 362.0077,7.68 359.4407,6.212 C356.8197,4.714 353.6007,3.029 349.3447,0.941 C347.4237,4.904 345.9057,7.957 344.4767,10.633 C343.0147,13.374 341.6537,15.706 340.0587,18.195 L339.7987,18.601 L339.5247,18.203 C337.2447,14.888 335.2687,11.745 333.5527,8.862 Z M329.7227,0.791 C330.9577,3.068 332.4057,5.683 334.1027,8.535 C335.7377,11.283 337.6157,14.274 339.7787,17.439 C341.2577,15.109 342.5417,12.898 343.9117,10.331 C345.3627,7.613 346.9167,4.481 348.9077,0.371 L349.0487,0.082 L349.3377,0.223 C353.7667,2.392 357.0837,4.125 359.7597,5.654 C362.4467,7.191 364.5007,8.531 366.3927,9.907 L366.5997,10.058 L366.4987,10.293 L366.4977,10.295 L366.4967,10.299 C365.6217,12.275 364.5767,14.42 363.3967,16.684 C362.2267,18.93 360.9097,21.319 359.4827,23.797 C352.1937,36.452 342.2077,51.075 334.1777,61.097 L334.0087,61.308 L333.7717,61.176 C330.3197,59.258 327.2167,57.289 324.4537,55.368 C321.6947,53.449 319.2617,51.569 317.1527,49.83 L316.9037,49.626 L317.1097,49.378 C319.8907,46.033 322.0567,43.193 323.7787,40.76 C325.4387,38.415 326.6887,36.442 327.6827,34.757 C323.5037,28.912 320.3507,23.931 317.8817,19.631 C315.3897,15.292 313.5937,11.643 312.1427,8.499 L312.0187,8.232 L312.2757,8.086 C314.1307,7.036 316.2577,5.914 318.9877,4.686 C321.7137,3.46 325.0507,2.123 329.3357,0.64 L329.5927,0.552 L329.7227,0.791 Z" id="Fill-29" fill="#103F5D"></path>
            <path d="M2.9027,58.9162 C9.0597,59.7992 18.5317,54.7022 21.4077,48.7222 C23.5567,41.4652 27.3207,35.3802 34.6337,31.8672 C40.3697,29.1122 45.9297,30.0942 52.1427,30.2502 C52.7677,29.6332 57.2987,25.0962 57.1327,24.4532 C54.7237,24.5382 53.2967,23.5882 52.8517,21.6032 C55.3377,21.1692 57.3637,21.9112 59.3227,22.8222 C60.1467,22.5472 61.3517,22.4362 62.8607,22.5102 C64.8157,23.5942 66.1077,24.1562 68.2907,24.5992 C70.0997,25.3582 69.0127,26.5562 67.2227,27.8602 C65.5117,28.5102 63.5467,29.0302 61.5437,29.2652 C60.1547,32.1902 59.5637,35.0042 57.1857,37.5122 C57.2937,40.3502 54.0977,47.0182 50.4547,44.3712 C53.1837,42.3532 53.4847,41.1652 52.6817,40.3542 C51.8257,40.9732 50.7767,41.2762 50.1337,42.0242 C50.0767,52.7112 36.7347,58.6162 28.9977,52.6452 C23.8927,58.9482 9.7267,62.2102 2.3877,60.7772 C0.1877,60.3342 1.2437,58.9652 2.9027,58.9162" id="Fill-31" fill="#CEDA5C"></path>
            <path d="M44.6896,35.422 C44.3376,34.912 43.7286,34.424 42.7956,34.014 C42.8026,35.146 43.1046,35.816 43.3336,36.327 C43.7216,37.191 43.9266,37.649 42.5656,38.851 L43.0046,39.007 C43.6396,38.81 44.1936,38.432 44.5686,37.957 C44.8536,37.596 45.0346,37.179 45.0686,36.744 L45.0686,36.743 C45.1026,36.311 44.9906,35.858 44.6896,35.422 Z M42.6986,33.623 C43.8176,34.077 44.5406,34.642 44.9536,35.24 C45.2996,35.741 45.4286,36.266 45.3896,36.769 C45.3496,37.269 45.1436,37.746 44.8196,38.156 C44.3946,38.694 43.7656,39.119 43.0456,39.331 L42.9956,39.345 L42.9466,39.328 L42.1976,39.061 L41.9336,38.968 L42.1486,38.787 C43.5546,37.603 43.3816,37.218 43.0406,36.458 C42.7826,35.884 42.4396,35.119 42.4776,33.768 L42.4846,33.536 L42.6986,33.623 Z" id="Fill-33" fill="#103F5D"></path>
            <path d="M47.2247,42.34 C46.0477,41.01 44.9947,39.652 43.5637,38.56 C44.7617,37.492 44.8447,35.199 40.3217,34.2 C40.6467,37.633 42.0787,37.311 41.8337,38.26 C41.5907,38.256 41.3307,38.26 41.0567,38.273 C39.7267,39.012 38.8477,39.394 37.3617,39.696 C36.1307,40.212 36.8027,40.922 38.0207,41.81 C39.1867,42.251 40.5907,41.772 41.9537,42.191 C42.2707,42.858 42.5267,43.597 42.7877,44.349 C44.1847,43.421 45.6607,42.743 47.2247,42.34" id="Fill-35" fill="#CEDA5C"></path>
            <path d="M46.6617,41.449 C46.8897,41.714 47.1207,41.98 47.3447,42.233 L47.5177,42.43 L47.2647,42.495 C46.4937,42.694 45.7417,42.961 45.0097,43.294 C44.2787,43.626 43.5677,44.023 42.8767,44.483 L42.7047,44.597 L42.6367,44.402 L42.6287,44.378 C42.3797,43.664 42.1357,42.961 41.8397,42.325 C41.2097,42.145 40.5627,42.157 39.9367,42.168 C39.2467,42.182 38.5807,42.194 37.9647,41.96 L37.9457,41.952 L37.9267,41.939 C37.2977,41.48 36.8077,41.064 36.6277,40.682 C36.4157,40.233 36.5717,39.852 37.2997,39.547 L37.3117,39.543 L37.3307,39.538 C38.0627,39.39 38.6447,39.221 39.2097,38.998 C39.7737,38.775 40.3207,38.498 40.9797,38.133 L41.0117,38.115 L41.0497,38.113 C41.2277,38.104 41.4037,38.1 41.5747,38.099 L41.5757,38.099 L41.6977,38.099 C41.7087,37.887 41.5847,37.746 41.4047,37.543 C41.0017,37.088 40.3657,36.371 40.1617,34.215 L40.1407,33.996 L40.3557,34.043 C42.1667,34.443 43.2597,35.053 43.8477,35.712 C44.1097,36.006 44.2737,36.312 44.3567,36.616 C44.4407,36.922 44.4417,37.225 44.3787,37.511 C44.2927,37.901 44.0867,38.258 43.8087,38.547 C44.9017,39.41 45.7737,40.42 46.6617,41.449 M46.9327,42.252 C46.7567,42.051 46.5877,41.854 46.4187,41.659 C45.5027,40.598 44.6027,39.555 43.4657,38.688 L43.3107,38.57 L43.4567,38.44 C43.7567,38.173 43.9807,37.825 44.0657,37.441 C44.1177,37.205 44.1167,36.954 44.0467,36.7 C43.9767,36.444 43.8357,36.182 43.6077,35.927 C43.0837,35.338 42.1097,34.789 40.5047,34.407 C40.7187,36.285 41.2827,36.922 41.6447,37.331 C41.9257,37.648 42.1047,37.85 41.9887,38.3 L41.9577,38.423 L41.8317,38.421 L41.7987,38.42 L41.6977,38.419 L41.5757,38.419 C41.4257,38.42 41.2677,38.425 41.1017,38.432 C40.4447,38.796 39.8947,39.074 39.3257,39.298 C38.7517,39.524 38.1577,39.697 37.4127,39.849 C36.9187,40.059 36.7977,40.29 36.9187,40.545 C37.0687,40.865 37.5167,41.242 38.0967,41.666 C38.6527,41.872 39.2807,41.86 39.9317,41.848 C40.6047,41.835 41.3027,41.823 42.0017,42.037 L42.0717,42.059 L42.0997,42.124 L42.1007,42.124 C42.3917,42.739 42.6317,43.414 42.8717,44.102 C43.5227,43.68 44.1917,43.313 44.8777,43.001 C45.5437,42.698 46.2287,42.448 46.9327,42.252" id="Fill-37" fill="#103F5D"></path>
            <path d="M4.4283,59.3015 C3.9443,59.2985 1.6143,58.9495 1.4183,59.9585 C1.3153,60.3705 2.3283,60.5855 2.4523,60.6105 C3.3923,60.7085 4.3333,60.7795 5.2763,60.8125 C6.2203,60.8455 7.1693,60.8405 8.1243,60.7845 C16.5633,60.2945 24.7773,57.0705 28.8463,52.4565 L28.8463,52.4555 L28.9453,52.3775 L28.9943,52.3385 L29.0443,52.3765 L29.1443,52.4535 C29.2093,52.5035 29.2693,52.5485 29.3213,52.5875 C29.6093,52.8005 29.9063,52.9975 30.2083,53.1785 C30.5103,53.3595 30.8193,53.5235 31.1353,53.6745 C32.7083,54.4195 34.4243,54.7745 36.1553,54.7835 L36.3533,54.7835 C36.6443,54.7805 36.9393,54.7675 37.2353,54.7445 C37.5293,54.7225 37.8233,54.6905 38.1153,54.6495 C39.5753,54.4435 41.0133,54.0035 42.3553,53.3575 L42.3573,53.3565 L42.3593,53.3565 C42.6293,53.2265 42.8983,53.0855 43.1623,52.9385 C43.4263,52.7905 43.6853,52.6345 43.9393,52.4725 C45.2443,51.6315 46.4133,50.5805 47.3613,49.3505 C48.1373,48.3455 48.7273,47.3055 49.1263,46.1645 C49.5173,45.0425 49.7233,43.8215 49.7373,42.4385 C48.4473,42.3795 47.0833,42.7205 45.6453,43.3175 C44.1733,43.9305 42.6243,44.8125 40.9993,45.8135 L40.1533,46.3345 L40.9053,45.6845 C42.2533,44.5185 43.6803,43.5975 45.1933,42.9485 C46.6983,42.3035 48.2883,41.9255 49.9733,41.8415 C50.1803,41.6075 50.4213,41.4155 50.6813,41.2445 C50.9483,41.0685 51.2333,40.9165 51.5223,40.7635 L51.5223,40.7625 C51.6963,40.6705 51.8723,40.5765 52.0423,40.4775 C52.2143,40.3785 52.3813,40.2745 52.5403,40.1595 L52.5443,40.1565 L52.5463,40.1555 L52.5543,40.1505 L52.6543,40.0795 L52.7103,40.0395 L52.7583,40.0885 L52.8533,40.1845 C53.0903,40.4245 53.2463,40.6915 53.2973,40.9965 L53.2973,40.9975 C53.3473,41.3005 53.2923,41.6375 53.1083,42.0145 C52.9493,42.3435 52.6863,42.7065 52.3023,43.1075 C51.9403,43.4865 51.4693,43.9025 50.8733,44.3575 C50.9213,44.3855 50.9693,44.4135 51.0163,44.4385 C51.0853,44.4755 51.1553,44.5085 51.2263,44.5385 C51.5743,44.6885 51.9153,44.7505 52.2423,44.7375 L52.2703,44.7365 C52.3413,44.7335 52.4123,44.7255 52.4853,44.7155 C52.5583,44.7045 52.6293,44.6905 52.6973,44.6735 C53.0543,44.5865 53.4003,44.4165 53.7293,44.1855 L53.7313,44.1845 C53.7963,44.1375 53.8633,44.0865 53.9303,44.0345 C53.9953,43.9815 54.0613,43.9265 54.1253,43.8695 C54.4563,43.5745 54.7673,43.2195 55.0533,42.8265 L55.0793,42.7915 C55.2443,42.5595 55.3983,42.3125 55.5393,42.0555 C55.6813,41.7975 55.8103,41.5285 55.9273,41.2555 C56.5253,39.8555 56.8043,38.3195 56.7683,37.3435 L56.6693,35.2035 L56.6383,34.5285 L56.8263,35.1785 L57.2673,36.6995 C58.0523,35.8575 58.5993,35.0985 59.0453,34.3105 C59.5103,33.4905 59.8683,32.6365 60.2753,31.6255 C60.4403,31.2135 60.6083,30.7965 60.7733,30.4045 C60.9443,29.9955 61.1253,29.5825 61.3253,29.1625 L61.3633,29.0825 L61.3823,29.0415 L61.4263,29.0365 L61.5153,29.0255 L61.5243,29.0245 C61.7263,29.0005 61.9253,28.9745 62.1223,28.9455 C62.3213,28.9165 62.5193,28.8845 62.7163,28.8505 C63.7283,28.6745 64.7183,28.4325 65.6553,28.1435 C65.7703,28.1085 65.8953,28.0685 66.0283,28.0255 C66.1563,27.9835 66.2823,27.9405 66.4073,27.8985 C66.5413,27.8525 66.6623,27.8105 66.7703,27.7715 C66.8743,27.7335 66.9893,27.6905 67.1093,27.6455 C67.5363,27.3345 67.9203,27.0295 68.2293,26.7385 C68.5353,26.4485 68.7673,26.1735 68.8903,25.9205 C68.9893,25.7145 69.0033,25.5205 68.9063,25.3445 C68.8053,25.1595 68.5843,24.9865 68.2163,24.8305 C67.6713,24.7185 67.1803,24.5995 66.7193,24.4665 C66.2563,24.3325 65.8253,24.1855 65.4033,24.0185 C64.9833,23.8535 64.5693,23.6675 64.1383,23.4555 C63.7113,23.2465 63.2713,23.0115 62.7943,22.7475 L62.7853,22.7475 C62.6373,22.7405 62.4933,22.7355 62.3553,22.7325 C62.2153,22.7295 62.0773,22.7285 61.9443,22.7285 C61.2633,22.7305 60.6623,22.7775 60.1513,22.8665 L60.1443,22.8685 L60.1413,22.8685 L60.0863,22.8785 L60.0283,22.8895 C59.9303,22.9075 59.8393,22.9275 59.7553,22.9475 L59.7553,22.9485 C59.6973,22.9625 59.6373,22.9785 59.5763,22.9955 C59.5223,23.0115 59.4643,23.0285 59.4043,23.0495 L59.3923,23.0535 L59.3903,23.0535 L59.3373,23.0705 L59.3093,23.0795 L59.2803,23.0665 L59.2233,23.0415 L59.2223,23.0415 C58.7373,22.8165 58.2493,22.6015 57.7523,22.4135 C57.2563,22.2245 56.7503,22.0625 56.2303,21.9425 C55.7383,21.8295 55.2303,21.7525 54.7043,21.7265 C54.2063,21.7025 53.6883,21.7225 53.1493,21.7995 C53.2593,22.1875 53.4123,22.5295 53.6083,22.8225 C53.8183,23.1365 54.0783,23.3965 54.3883,23.6025 L54.4063,23.6145 C54.5013,23.6765 54.5993,23.7335 54.7023,23.7855 C54.8043,23.8365 54.9123,23.8845 55.0253,23.9275 C55.6033,24.1465 56.3033,24.2415 57.1233,24.2125 L57.3813,24.2005 L57.4473,24.1975 L57.4633,24.2605 L57.4953,24.3875 L57.4963,24.3915 L57.4963,24.3935 C57.6273,24.9735 55.2033,27.4685 53.6293,29.0885 L53.5763,29.1425 L53.5763,29.1435 L53.5743,29.1445 C53.3703,29.3555 53.1733,29.5825 52.9773,29.8075 C52.7463,30.0735 52.5153,30.3395 52.2743,30.5775 L52.2733,30.5785 L52.2683,30.5835 L52.2673,30.5845 L52.2193,30.6295 L52.1953,30.6525 L52.1613,30.6515 L52.0963,30.6485 L52.0533,30.6475 C50.8823,30.6175 49.7153,30.5515 48.5513,30.4855 C43.8443,30.2195 39.1703,29.9545 34.7363,32.0845 C32.9293,32.9535 31.3383,33.9815 29.9383,35.1465 C28.5383,36.3125 27.3273,37.6155 26.2773,39.0345 C25.2253,40.4545 24.3323,41.9925 23.5693,43.6255 C22.8063,45.2585 22.1723,46.9875 21.6383,48.7895 L21.6383,48.7915 L21.6343,48.8035 L21.6333,48.8055 L21.6303,48.8135 L21.6283,48.8185 C19.2213,54.2815 10.5013,59.3275 4.4283,59.3015 M50.1613,44.2875 L50.3113,44.1765 C50.9793,43.6835 51.4973,43.2425 51.8863,42.8485 C52.2713,42.4565 52.5283,42.1115 52.6763,41.8055 C52.7963,41.5575 52.8413,41.3375 52.8233,41.1415 C52.8073,40.9705 52.7433,40.8155 52.6403,40.6745 C52.5053,40.7645 52.3663,40.8475 52.2283,40.9265 C52.0663,41.0175 51.9063,41.1035 51.7473,41.1875 L51.7353,41.1945 C51.2263,41.4665 50.7303,41.7315 50.3733,42.1185 L50.3723,42.1945 L50.3723,42.1955 C50.3653,42.6035 50.3383,43.0025 50.2943,43.3915 C50.2603,43.6945 50.2163,43.9935 50.1613,44.2875 M4.4503,58.8185 C10.3233,58.8365 18.8563,53.9105 21.1823,48.6365 C21.7223,46.8155 22.3643,45.0655 23.1383,43.4115 C23.9133,41.7535 24.8213,40.1915 25.8913,38.7475 C26.9633,37.2985 28.2003,35.9685 29.6303,34.7775 C31.0593,33.5875 32.6823,32.5375 34.5293,31.6505 C39.1833,29.4155 44.0833,29.6485 49.0083,29.8835 C50.0223,29.9315 51.0383,29.9795 52.0463,30.0065 L52.2003,29.8535 L52.4463,29.6075 L52.4463,29.6065 L52.4473,29.6055 L52.4473,29.6065 L52.5393,29.5125 L52.6393,29.4115 C52.8133,29.2355 53.0133,29.0315 53.2303,28.8065 L53.2373,28.7995 L53.2383,28.7995 C53.4463,28.5855 53.6573,28.3665 53.8563,28.1595 C54.0643,27.9415 54.2833,27.7105 54.5093,27.4695 C55.5483,26.3615 56.5663,25.2125 56.8353,24.6985 C56.3003,24.6985 55.8133,24.6455 55.3763,24.5385 C54.9013,24.4225 54.4833,24.2445 54.1223,24.0045 L54.1213,24.0045 L54.1183,24.0015 C54.0123,23.9315 53.9103,23.8535 53.8123,23.7715 C53.7143,23.6875 53.6223,23.5995 53.5373,23.5075 C53.0933,23.0305 52.7863,22.4125 52.6163,21.6565 L52.5793,21.4915 L52.5613,21.4095 L52.6443,21.3945 L52.8103,21.3655 C53.4483,21.2535 54.0583,21.2185 54.6443,21.2415 C55.2303,21.2645 55.7933,21.3475 56.3383,21.4725 C56.8693,21.5965 57.3843,21.7595 57.8863,21.9495 C58.3793,22.1345 58.8613,22.3435 59.3383,22.5625 C59.3783,22.5505 59.4223,22.5385 59.4693,22.5255 C59.5293,22.5085 59.5863,22.4935 59.6413,22.4805 L59.6463,22.4785 L59.6473,22.4785 L59.7043,22.4645 L59.7053,22.4645 L59.7633,22.4525 C59.8643,22.4295 59.9673,22.4095 60.0683,22.3915 L60.0873,22.3885 C60.1923,22.3705 60.3023,22.3535 60.4183,22.3385 C60.5323,22.3235 60.6493,22.3105 60.7693,22.2995 C61.3833,22.2415 62.0873,22.2305 62.8723,22.2685 L62.8743,22.2685 L62.9123,22.2715 L62.9303,22.2725 L62.9463,22.2825 L62.9783,22.3005 C63.4603,22.5675 63.9033,22.8035 64.3313,23.0135 C64.7543,23.2225 65.1623,23.4065 65.5783,23.5705 L65.5783,23.5715 C65.9903,23.7335 66.4123,23.8765 66.8643,24.0065 C67.3193,24.1375 67.8023,24.2545 68.3373,24.3625 L68.3583,24.3665 L68.3673,24.3685 L68.3753,24.3725 L68.3843,24.3775 L68.3843,24.3765 C68.9123,24.5985 69.2283,24.8595 69.3743,25.1535 C69.5233,25.4535 69.4923,25.7815 69.3233,26.1295 C69.1773,26.4315 68.9163,26.7465 68.5763,27.0705 C68.2403,27.3895 67.8243,27.7195 67.3643,28.0555 L67.3613,28.0575 L67.3443,28.0695 L67.3383,28.0725 L67.3303,28.0765 L67.3193,28.0805 L67.3023,28.0925 L67.2903,28.0925 C67.1773,28.1355 67.0583,28.1795 66.9333,28.2245 C66.8003,28.2725 66.6763,28.3165 66.5643,28.3555 L66.5633,28.3555 L66.5603,28.3555 L66.5603,28.3565 L66.4583,28.3905 L66.3543,28.4255 L66.3533,28.4265 C66.1853,28.4815 65.9993,28.5415 65.7973,28.6035 L65.7893,28.6055 C65.6013,28.6635 65.4153,28.7185 65.2343,28.7695 C65.0553,28.8195 64.8673,28.8705 64.6703,28.9215 C63.7083,29.1685 62.7103,29.3645 61.7043,29.4895 C61.5253,29.8715 61.3583,30.2535 61.1993,30.6345 C61.0263,31.0455 60.8733,31.4275 60.7213,31.8055 L60.7193,31.8125 C59.9013,33.8455 59.1163,35.7955 57.4293,37.6065 L57.4293,37.6305 L57.4293,37.6315 C57.4303,37.8415 57.4153,38.0675 57.3863,38.3035 C57.3583,38.5385 57.3143,38.7895 57.2563,39.0515 C56.9643,40.3645 56.3203,41.9045 55.4443,43.1085 L55.4433,43.1095 L55.4433,43.1105 C55.3863,43.1885 55.3253,43.2695 55.2613,43.3515 C55.1973,43.4335 55.1343,43.5115 55.0723,43.5835 C54.7433,43.9715 54.3863,44.3115 54.0073,44.5795 L53.9813,44.5975 C53.9063,44.6495 53.8293,44.6995 53.7533,44.7455 C53.6763,44.7915 53.5983,44.8355 53.5193,44.8755 C53.1203,45.0795 52.6983,45.2015 52.2603,45.2185 L52.2313,45.2195 C52.1423,45.2215 52.0533,45.2195 51.9653,45.2135 C51.8763,45.2075 51.7873,45.1965 51.6973,45.1805 C51.2443,45.1025 50.7803,44.9045 50.3143,44.5655 L50.1363,44.4365 L50.1323,44.4335 L50.1103,44.5445 C49.7103,46.4565 48.8773,48.1725 47.7443,49.6425 L47.7423,49.6435 L47.7413,49.6455 C47.5493,49.8945 47.3483,50.1355 47.1423,50.3685 C46.9353,50.6005 46.7193,50.8275 46.4953,51.0465 C45.3503,52.1695 44.0103,53.0965 42.5643,53.7925 L42.3873,53.8755 L42.3863,53.8765 C42.1063,54.0065 41.8223,54.1285 41.5343,54.2405 C41.2483,54.3535 40.9573,54.4575 40.6633,54.5525 C39.2003,55.0265 37.6703,55.2735 36.1533,55.2655 C36.0823,55.2645 36.0123,55.2635 35.9433,55.2615 C35.5873,55.2545 35.2333,55.2335 34.8823,55.1975 C34.5313,55.1615 34.1813,55.1115 33.8323,55.0465 C32.1143,54.7245 30.5813,54.1275 29.1203,53.0375 C25.5053,57.6295 16.2793,60.7915 8.1493,61.2665 C7.1823,61.3215 6.2183,61.3275 5.2593,61.2935 C4.2983,61.2605 3.3433,61.1885 2.3943,61.0895 L2.3903,61.0895 L2.3843,61.0885 L2.3823,61.0875 L2.3713,61.0855 L2.3703,61.0855 L2.3653,61.0845 C2.2673,61.0655 2.1773,61.0435 2.0933,61.0215 C2.0083,60.9985 1.9283,60.9735 1.8523,60.9465 C1.4653,60.8115 0.9913,60.5485 0.9353,60.0945 C0.8813,59.6525 1.2503,59.2905 1.6073,59.0905 C2.5653,58.5535 3.4193,58.8155 4.4503,58.8185" id="Fill-39" fill="#103F5D"></path>
            <path d="M39.7571,44.5398 C41.0881,45.9378 41.5101,47.8558 41.2131,49.7478 C39.9631,57.7098 32.7891,54.9078 34.4271,57.8068 C35.8831,60.3828 50.2991,55.1678 50.9771,61.0528 L28.2621,61.0528 C26.8631,58.3258 30.0581,55.3988 31.3121,54.6268 C33.3721,53.3598 21.1301,53.3788 27.5121,46.3228 C30.6871,42.8118 35.8271,40.4138 39.7571,44.5398" id="Fill-41" fill="#CEDA5C"></path>
            <path d="M39.9315,44.374 L39.9365,44.379 C40.1275,44.58 40.3005,44.793 40.4565,45.017 C40.6125,45.24 40.7515,45.473 40.8725,45.713 C41.4945,46.946 41.6695,48.39 41.4505,49.785 C41.0655,52.236 40.1335,53.699 39.0615,54.625 C37.9895,55.55 36.7815,55.935 35.8405,56.235 L35.8395,56.235 L35.6415,56.296 C35.3605,56.382 35.0675,56.472 34.8455,56.598 C34.4905,56.798 34.3075,57.106 34.6365,57.689 L34.6365,57.69 C34.8875,58.133 35.6575,58.304 36.7305,58.334 C37.8245,58.366 39.2305,58.248 40.7255,58.122 C40.9825,58.101 41.2815,58.07 41.6125,58.035 C44.7505,57.711 50.7645,57.09 51.2375,61.204 L51.2475,61.294 L51.1575,61.294 L28.1655,61.294 L28.1155,61.294 L28.0935,61.249 L28.0925,61.247 C27.9025,60.883 27.7845,60.512 27.7285,60.142 C27.6725,59.77 27.6785,59.396 27.7345,59.028 C28.0235,57.144 29.6485,55.367 31.1855,54.421 L31.1865,54.421 C31.2185,54.401 31.2255,54.38 31.2125,54.358 C31.0375,54.074 29.6965,53.628 28.8895,53.359 C28.6145,53.267 28.3985,53.197 28.3085,53.157 L28.3035,53.154 C27.1665,52.566 26.3855,51.804 26.0135,51.328 C25.9195,51.208 25.8505,51.105 25.8085,51.027 C25.7535,50.928 25.7385,50.851 25.7615,50.807 L25.7645,50.8 L25.7705,50.793 L25.7755,50.787 L25.8305,50.72 L25.8925,50.78 L25.9025,50.79 C27.3955,52.208 29.1355,52.984 30.3135,53.509 C31.0295,53.829 31.5435,54.059 31.6905,54.297 C31.8025,54.48 31.7345,54.65 31.4385,54.833 L31.4375,54.833 L31.4365,54.833 C31.1825,54.99 30.9185,55.177 30.6565,55.389 C30.3935,55.601 30.1335,55.839 29.8845,56.094 C28.6275,57.393 27.6785,59.193 28.4125,60.811 L50.6945,60.811 C50.3865,59.34 49.0155,58.696 47.1955,58.463 C45.3115,58.222 42.9445,58.42 40.7645,58.603 C39.2135,58.733 37.7535,58.856 36.5965,58.804 C35.4185,58.753 34.5525,58.517 34.2185,57.925 C33.7045,57.016 34.0085,56.53 34.5795,56.207 C34.8885,56.032 35.2745,55.91 35.6465,55.791 L35.6945,55.776 C36.5855,55.492 37.7285,55.128 38.7335,54.262 C39.7385,53.394 40.6135,52.02 40.9755,49.712 C41.2245,48.124 40.9005,46.713 40.1915,45.58 C39.7215,44.83 39.0825,44.202 38.3295,43.724 C37.5745,43.247 36.7045,42.919 35.7735,42.774 C34.0805,42.508 32.1845,42.84 30.4125,43.949 L30.4095,43.951 L30.4075,43.952 L30.3205,43.817 L30.3235,43.815 L30.3245,43.815 C30.9435,43.407 31.5405,43.086 32.1125,42.84 C32.6865,42.594 33.2385,42.423 33.7655,42.317 C36.4855,41.771 38.5695,42.945 39.9315,44.374" id="Fill-43" fill="#103F5D"></path>
        </g>
    </g>
</svg>